<?xml version="1.0" encoding="utf-8"?>
<!-- Generator: Adobe Illustrator 16.0.4, SVG Export Plug-In . SVG Version: 6.00 Build 0)  -->
<!DOCTYPE svg PUBLIC "-//W3C//DTD SVG 1.1//EN" "http://www.w3.org/Graphics/SVG/1.1/DTD/svg11.dtd">
<svg version="1.1" id="Calque_1" xmlns="http://www.w3.org/2000/svg" xmlns:xlink="http://www.w3.org/1999/xlink" x="0px" y="0px"
	 width="48.2px" height="48.3px" viewBox="0 0 48.2 48.3" enable-background="new 0 0 48.2 48.3" xml:space="preserve">
<g>
	<path fill="#030104" d="M33.982,36.515c-1.026-0.171-2.226-0.341-3.422-0.513c-1.025-0.173-1.88,0-2.564,0.854
		c-0.686,0.855-1.54,1.538-2.225,2.223c-1.196,1.197-2.394,1.197-3.591,0c-0.855-0.685-1.54-1.539-2.395-2.395
		c-0.683-0.683-1.539-1.025-2.394-0.683c-1.027,0.172-2.052,0.342-3.078,0.513c-1.71,0.342-2.737-0.513-3.08-2.224
		c-0.17-1.027-0.341-2.053-0.513-3.078c-0.171-1.025-0.684-1.711-1.539-2.225c-0.855-0.512-1.881-0.855-2.737-1.366
		c-1.539-0.855-1.881-2.055-1.198-3.594c0.514-1.025,1.026-1.882,1.541-2.907c0.341-0.854,0.341-1.539,0-2.395
		c-0.514-1.025-1.027-2.052-1.541-2.906c-0.684-1.369-0.341-2.735,1.198-3.421c1.026-0.515,1.881-1.025,2.908-1.54
		c0.855-0.341,1.368-1.025,1.539-2.051c0.171-1.027,0.341-2.054,0.513-3.251c0.171-1.539,1.369-2.395,2.908-2.223
		c1.026,0.171,1.88,0.342,2.906,0.513c1.199,0.171,2.054,0,2.909-0.855c0.683-0.685,1.366-1.539,2.051-2.224
		c1.025-1.025,2.395-1.025,3.591,0c0.685,0.685,1.539,1.368,2.054,2.224c0.855,0.855,1.71,1.197,2.906,0.855
		c1.025-0.171,1.881-0.342,2.907-0.513c1.539-0.343,2.738,0.513,2.909,2.223c0.17,1.026,0.34,2.052,0.513,3.251
		c0.172,1.025,0.683,1.71,1.538,2.051c0.854,0.515,1.71,0.855,2.737,1.37c1.883,0.855,2.224,2.051,1.197,3.932
		c-0.343,0.854-0.855,1.54-1.197,2.396c-0.513,1.025-0.513,2.052,0,3.079c0.513,0.855,0.854,1.711,1.367,2.565
		c0.685,1.539,0.343,2.736-1.195,3.421c-1.027,0.511-1.883,1.025-2.909,1.538c-0.855,0.342-1.366,1.027-1.366,2.053
		c-0.172,1.025-0.345,2.223-0.515,3.25C36.376,35.66,35.522,36.515,33.982,36.515z"/>
	<path fill="#030104" d="M38.598,32.581c2.225,2.224,4.447,4.276,6.5,6.499c0.855,0.855,0.341,1.881-0.854,2.225
		c-1.198,0.171-2.396,0.512-3.421,0.684c-0.343,0-0.515,0.172-0.686,0.683c-0.17,1.028-0.341,2.056-0.513,3.081
		c-0.172,0.685-0.342,1.195-1.026,1.539c-0.684,0.171-1.196-0.172-1.538-0.685c-2.565-2.565-5.132-5.131-7.525-7.696
		c-0.172-0.171-0.685-0.343-0.514-0.855c0.342-0.342,0.685-0.685,1.197-0.685c1.027,0.171,2.223,0.343,3.248,0.515
		c2.396,0.341,4.276-0.855,4.791-3.25C38.257,33.95,38.427,33.264,38.598,32.581z"/>
	<path fill="#030104" d="M9.524,32.581c0.171,0.855,0.171,1.538,0.342,2.224c0.513,2.225,2.395,3.421,4.618,3.08
		c1.025-0.172,2.052-0.344,3.25-0.515c0.17,0,0.341,0,0.513,0c0.513,0,0.855,0.343,1.027,0.685c0.17,0.341-0.172,0.513-0.515,0.685
		c-2.565,2.565-5.13,5.132-7.696,7.697c-0.513,0.511-0.855,0.854-1.54,0.683c-0.684-0.172-0.855-0.854-1.025-1.367
		c-0.171-1.025-0.514-2.226-0.514-3.251c0-0.513-0.171-0.513-0.684-0.685c-1.198-0.171-2.395-0.341-3.421-0.684
		c-1.197-0.172-1.539-1.368-0.855-2.053C4.907,37.029,7.13,34.804,9.524,32.581z"/>
	<path fill="#FEFEFE" d="M23.89,33.778c-7.867,0-14.195-6.327-14.195-14.195c0-7.867,6.328-14.195,14.195-14.195
		c7.866,0,14.196,6.498,14.196,14.195C38.086,27.451,31.756,33.778,23.89,33.778z"/>
	<path fill="#030104" d="M36.033,19.583c0,6.671-5.473,12.144-12.143,12.144c-6.67,0-12.143-5.473-12.143-12.144
		c0-6.67,5.472-12.143,12.143-12.143C30.731,7.44,36.033,12.913,36.033,19.583z"/>
</g>
</svg>
