<?xml version="1.0" encoding="utf-8"?>
<!-- Generator: Adobe Illustrator 16.0.4, SVG Export Plug-In . SVG Version: 6.00 Build 0)  -->
<!DOCTYPE svg PUBLIC "-//W3C//DTD SVG 1.1//EN" "http://www.w3.org/Graphics/SVG/1.1/DTD/svg11.dtd">
<svg version="1.1" xmlns="http://www.w3.org/2000/svg" xmlns:xlink="http://www.w3.org/1999/xlink" x="0px" y="0px" width="50px"
	 height="50px" viewBox="0 0 50 50" style="enable-background:new 0 0 50 50;" xml:space="preserve">
<style type="text/css">
<![CDATA[
	.st0{fill-rule:evenodd;clip-rule:evenodd;fill:#2B2B28;}
]]>
</style>
<g id="Calque_1">
	<g>
		<path class="st0" d="M42.7,14.3c0-3,0-5.9,0-8.9c0-2.7-2-4.6-4.6-4.6c-7.5,0-15,0-22.5,0c-0.3,0-0.5,0.1-0.7,0.3
			C12.6,3.4,10.3,5.7,8,7.9C7.5,8.5,7.3,9,7.3,9.8c0,9.2,0,18.4,0,27.6c0,2.5,0,5.1,0,7.6c0.1,2.4,2.1,4.2,4.4,4.2
			c8.8,0,17.6,0,26.4,0c0.5,0,1-0.1,1.5-0.3c1.9-0.7,3-2.4,3-4.7c0-6.4,0-12.8,0-19.2C42.7,21.4,42.7,17.9,42.7,14.3z M40.7,13.5
			c0,3.8,0,7.7,0,11.5h0c0,6.5,0,12.9,0,19.4c0,1.7-1,2.7-2.7,2.7c-8.7,0-17.3,0-26,0c-1.1,0-1.9-0.5-2.4-1.5
			c-0.2-0.4-0.2-0.8-0.2-1.2c0-6.1,0-12.2,0-18.3c0-5.6,0-11.3,0-16.9c0-0.4,0.1-0.5,0.5-0.5c1.7,0,3.3,0,5,0c0.3,0,0.4-0.1,0.4-0.4
			c0-1.7,0-3.3,0-5c0-0.3,0.1-0.4,0.4-0.4c7.5,0,15,0,22.6,0c1.5,0,2.5,1.1,2.6,2.6C40.7,8.1,40.7,10.8,40.7,13.5z"/>
		<path class="st0" d="M36.6,22.2c-7.7,0-15.5,0-23.2,0c-0.9,0-1-0.1-1.1-1c0-0.1,0-0.3,0-0.4c0-0.7,0.2-0.9,0.9-0.9H37
			c0.8,0,0.9,0.1,0.9,0.9C37.9,22.1,37.9,22.2,36.6,22.2z"/>
		<path class="st0" d="M36.6,27.7c-3.8,0-7.7,0-11.5,0c0,0,0,0,0,0H13.2c-0.7,0-0.9-0.2-0.9-0.9c0-1.3,0-1.4,1.4-1.4
			c7.8,0,15.5,0,23.3,0c0.8,0,1,0.1,1,1C37.9,27.7,37.9,27.7,36.6,27.7z"/>
		<path class="st0" d="M36.6,33.2c-7.8,0-15.5,0-23.3,0c-0.9,0-1-0.1-1-1c0-1.3,0-1.3,1.3-1.3c3.9,0,7.7,0,11.6,0
			c3.9,0,7.9,0,11.8,0c0.8,0,1,0.1,1,1C37.9,33.2,37.9,33.2,36.6,33.2z"/>
		<path class="st0" d="M37.9,37.4c0,1.3,0,1.3-1.3,1.3c-7.8,0-15.6,0-23.4,0c-0.8,0-0.9-0.1-0.9-0.9c0-1.4,0-1.4,1.4-1.4
			c3.8,0,7.6,0,11.4,0c3.9,0,7.9,0,11.8,0C37.8,36.5,37.9,36.6,37.9,37.4z"/>
		<path class="st0" d="M36.7,44.3c-3.9,0-7.7,0-11.6,0c0,0,0,0,0,0H13.2c-0.7,0-0.8-0.1-0.8-0.9c0-1.4,0-1.4,1.4-1.4l23.2,0
			c0.8,0,0.9,0.1,1,1V43C37.9,44.2,37.9,44.3,36.7,44.3z"/>
		<path class="st0" d="M38.2,6.7c-0.5,1.5-1,2.9-1.5,4.4c-0.3,0.9-0.6,1.9-1,2.8c-0.1,0.3-0.2,0.5-0.5,0.4c-0.5-0.1-1.1,0.2-1.4-0.1
			c-0.3-0.3-0.4-0.8-0.5-1.3c-0.7-2.1-1.4-4.2-2.1-6.3C31,6.4,31,6.3,31.4,6.3c1.3,0,1.3,0,1.7,1.2c0.5,1.6,1.1,3.2,1.5,4.9
			c0,0.1,0.1,0.1,0.1,0.2c0.5-2.1,1.2-4.1,1.8-6.1c0.1-0.2,0.2-0.2,0.4-0.2c0.3,0,0.7,0,1,0C38.2,6.3,38.3,6.4,38.2,6.7z"/>
		<path class="st0" d="M26.4,9c-0.3,0.9-0.3,1.8,0,2.7c0.3,1,1,1.4,2,1.4c0.5,0,1.1-0.1,1.6-0.3c0.2-0.1,0.3,0,0.3,0.2
			c0.1,1.1,0,1.3-1.2,1.4c-0.5,0.1-1,0.1-1.5,0.1c-1.8-0.2-2.9-1.4-3.1-3.3c0-0.2,0-0.5,0-0.7c0-1.4,0.3-2.7,1.5-3.6
			c1.4-1,2.9-0.8,4.4-0.2c0.1,0,0.2,0.1,0.2,0.2c-0.1,0.4-0.3,0.8-0.5,1.2c-0.1,0.2-0.2,0-0.3,0c-0.4-0.2-0.8-0.3-1.2-0.4
			C27.5,7.5,26.8,8,26.4,9z"/>
	</g>
</g>
<g id="Calque_2">
</g>
</svg>
