<?xml version="1.0" encoding="utf-8"?>
<!-- Generator: Adobe Illustrator 16.0.4, SVG Export Plug-In . SVG Version: 6.00 Build 0)  -->
<!DOCTYPE svg PUBLIC "-//W3C//DTD SVG 1.1//EN" "http://www.w3.org/Graphics/SVG/1.1/DTD/svg11.dtd">
<svg version="1.1" id="Calque_1" xmlns="http://www.w3.org/2000/svg" xmlns:xlink="http://www.w3.org/1999/xlink" x="0px" y="0px"
	 width="50px" height="50px" viewBox="0 0 50 50" style="enable-background:new 0 0 50 50;" xml:space="preserve">
<style type="text/css">
<![CDATA[
	.st0{fill-rule:evenodd;clip-rule:evenodd;}
	.st1{fill-rule:evenodd;clip-rule:evenodd;fill:#FEFEFE;}
]]>
</style>
<g>
	<path d="M46.4,34.8c-0.6-1.5-1.5-2.8-2.2-4.2c-1.6-3-3.2-5.9-4.8-8.8c-1.4-2.5-2.7-5-4.1-7.6c-0.2-0.4-0.2-0.4,0.2-0.6
		c1.1-0.4,2.1-1,2.8-1.9c2.2-2.5,2.1-6.2-0.2-8.6c-1-1.1-2.3-1.7-3.8-1.8c0.2,0.2,0.5,0.1,0.7,0.2c4.2,1,6.1,6,3.6,9.6
		c-0.9,1.4-2.2,2.2-3.8,2.6c0.1,0.2,0.2,0.3,0.3,0.5c3.6,6.6,7.1,13.2,10.7,19.8c0.9,1.8,1.2,3.6,0.6,5.5c-0.8,2.6-2.6,4.1-5.3,4.7
		c-0.3,0.1-0.4,0.2-0.4,0.5c0,1,0,2,0,3c0,0.5-0.1,0.9-0.6,1.1c0.6-0.2,0.7-0.3,0.7-0.9c0-1,0-2,0-3c0-0.4,0.1-0.5,0.5-0.6
		c1.4-0.3,2.6-1,3.7-2C46.9,40.3,47.4,37.2,46.4,34.8z M37.2,46.6c-0.2-0.2-0.3-0.2-0.6,0c-0.8,0.7-1.7,1.4-2.5,2.1
		c0.3-0.1,0.5-0.3,0.8-0.5c0.6-0.5,1.2-1,1.8-1.6C36.8,46.6,36.9,46.5,37.2,46.6c0.4,0.5,0.9,0.9,1.3,1.3c0.4,0.3,0.7,0.7,1.2,0.8
		C38.9,48,38,47.3,37.2,46.6z M33,47.6c0-1,0-1.9,0-2.9c0-0.4-0.1-0.5-0.5-0.5c-6.9,0-13.8,0-20.7,0c-0.3,0-0.5,0-0.8,0
		c-4.8-0.3-7.5-5.5-4.9-9.6c1.2-1.9,3-2.8,5.3-2.9c0.9,0,1.9,0,2.9,0c-0.1-0.2-0.2-0.4-0.3-0.5c-3.2-6.2-6.5-12.3-9.7-18.5
		c-0.5-1-0.9-2-1-3.1c-0.3-4,2.3-7.4,6.2-8.2c0.1,0,0.3,0,0.4-0.2C8.6,1.4,7.4,1.9,6.4,2.6C4.3,4.2,3.2,6.3,3.1,8.9
		c0,1.6,0.5,3,1.2,4.3c1.2,2.1,2.3,4.3,3.4,6.5c0.7,1.3,1.4,2.7,2.1,4c1.3,2.5,2.6,5,4,7.5c0.2,0.4,0.1,0.4-0.3,0.4
		c-0.6,0-1.3,0-1.9,0c-1.1,0-2.2,0.2-3.2,0.8c-3.1,1.6-4.6,6-2.1,9.4c1.3,1.8,3.1,2.6,5.3,2.6c6.8,0,13.7,0,20.5,0
		c0.8,0,0.8,0,0.8,0.8c0,0.8,0,1.6,0,2.4c0,0.5,0.1,1,0.8,1.2C33.1,48.5,33,48.1,33,47.6z"/>
	<path d="M45.8,34c-3.6-6.6-7.1-13.2-10.7-19.8c-0.1-0.2-0.2-0.3-0.3-0.5c1.6-0.4,2.9-1.3,3.8-2.6c2.5-3.6,0.6-8.5-3.6-9.6
		c-0.2-0.1-0.5,0-0.7-0.2H9.8C9.7,1.5,9.5,1.4,9.4,1.5C5.5,2.3,2.9,5.7,3.3,9.7c0.1,1.1,0.5,2.1,1,3.1c3.2,6.2,6.5,12.3,9.7,18.5
		c0.1,0.1,0.1,0.3,0.3,0.5c-1,0-1.9,0-2.9,0c-2.3,0-4.1,1-5.3,2.9c-2.6,4,0.1,9.2,4.9,9.6c0.3,0,0.5,0,0.8,0c6.9,0,13.8,0,20.7,0
		c0.4,0,0.5,0.1,0.5,0.5c0,1,0,1.9,0,2.9c0,0.5,0.1,0.9,0.6,1.1h0.5c0.8-0.7,1.7-1.4,2.5-2.1c0.2-0.2,0.3-0.2,0.6,0
		c0.8,0.7,1.7,1.4,2.5,2.1h0.5c0.5-0.2,0.6-0.6,0.6-1.1c0-1,0-2,0-3c0-0.3,0.1-0.4,0.4-0.5c2.7-0.5,4.4-2.1,5.3-4.7
		C47.1,37.5,46.8,35.7,45.8,34z M15.7,2.9c5.9,0,11.8,0,17.6,0c1.6,0,3,0.6,4,1.9c1.6,2.1,1,5.4-1.3,6.6c-0.8,0.4-1.6,0.7-2.5,0.7
		c-6,0-12,0-18,0h-0.3c2.8-2.9,2.4-6.8,0-9.2H15.7z M14.6,41.4c-1.5,1.2-3.2,1.5-5,0.8c-1.7-0.6-2.9-2.5-2.9-4.3
		c0-1.9,1.3-3.7,3.1-4.3c1-0.3,2-0.2,2.9-0.2c0.8,0,1.4,0,2,0c0.3,0,0.4,0.1,0.5,0.3c0.4,0.9,1,1.8,1.2,2.8
		C16.7,38.5,16.1,40.2,14.6,41.4z M39.1,46.1c-0.5-0.4-1-0.8-1.5-1.2c-0.6-0.5-0.9-0.5-1.6,0c-0.5,0.4-0.9,0.8-1.4,1.2
		c0,0,0,0-0.1,0v-6.8c1.5,0.7,3,0.7,4.5,0V46.1z M37,38.1c-1.8,0-3.4-1.4-3.4-3.3c0-1.8,1.4-3.3,3.3-3.4c1.8,0,3.3,1.5,3.3,3.3
		C40.2,36.5,38.7,38.1,37,38.1z M41.3,42.5c-0.4,0.1-0.5,0-0.5-0.4c0-1.2,0-2.5,0-3.7c0-0.3,0.1-0.6,0.2-0.8
		c1.3-1.9,1.1-4.2-0.5-6.1c-1.4-1.6-3.8-2-5.8-1.1c-2.7,1.3-3.6,4.7-2,7.2c0.2,0.2,0.2,0.5,0.2,0.8c0,1.3,0,2.7,0,4
		c0,0.3-0.1,0.3-0.3,0.3c-5.5,0-11,0-16.6,0h-0.3c0.9-0.8,1.5-1.7,1.9-2.7c0.8-2,0.6-4-0.4-5.9c-3-5.6-5.9-11.2-8.9-16.8
		c-1-1.9-2.1-3.8-3-5.8C4.4,9.2,4.7,7.1,6.1,5.3C7.5,3.5,9.3,2.7,11.5,3c2,0.3,3.3,1.5,3.8,3.4c0.5,1.8-0.1,3.3-1.5,4.6
		c-0.8,0.7-1.7,1.1-2.8,1.1c-0.6,0-1,0.3-1,0.8c0,0.5,0.4,0.8,1.1,0.8c5,0,10,0,15,0c2.2,0,4.3,0,6.5,0c0.3,0,0.5,0.1,0.6,0.4
		C37,21,40.7,27.9,44.4,34.8C46.2,38,44.4,41.7,41.3,42.5z"/>
	<path class="st1" d="M33.6,48.7c-10.6,0-21.3,0-31.9,0c-0.3,0-0.4-0.1-0.4-0.4c0-15.6,0-31.1,0-46.7c0-0.3,0.1-0.4,0.4-0.4
		c2.7,0,5.4,0,8.1,0C9.7,1.5,9.5,1.4,9.4,1.5C5.5,2.3,2.9,5.7,3.3,9.7c0.1,1.1,0.5,2.1,1,3.1c3.2,6.2,6.5,12.3,9.7,18.5
		c0.1,0.1,0.1,0.3,0.3,0.5c-1,0-1.9,0-2.9,0c-2.3,0-4.1,1-5.3,2.9c-2.6,4,0.1,9.2,4.9,9.6c0.3,0,0.5,0,0.8,0c6.9,0,13.8,0,20.7,0
		c0.4,0,0.5,0.1,0.5,0.5c0,1,0,1.9,0,2.9C33,48.1,33.1,48.5,33.6,48.7z"/>
	<path class="st1" d="M48.7,48.4c0,0.3-0.1,0.3-0.3,0.3c-2.7,0-5.5,0-8.2,0c0.5-0.2,0.6-0.6,0.6-1.1c0-1,0-2,0-3
		c0-0.3,0.1-0.4,0.4-0.5c2.7-0.5,4.4-2.1,5.3-4.7c0.6-1.9,0.3-3.7-0.6-5.5c-3.6-6.6-7.1-13.2-10.7-19.8c-0.1-0.2-0.2-0.3-0.3-0.5
		c1.6-0.4,2.9-1.3,3.8-2.6c2.5-3.6,0.6-8.5-3.6-9.6c-0.2-0.1-0.5,0-0.7-0.2c4.7,0,9.3,0,14,0c0.2,0,0.3,0,0.3,0.3
		C48.7,17.2,48.7,32.8,48.7,48.4z"/>
	<path class="st1" d="M39.7,48.7h-5.6c0.8-0.7,1.7-1.4,2.5-2.1c0.2-0.2,0.3-0.2,0.6,0C38,47.3,38.9,48,39.7,48.7z"/>
	<path class="st0" d="M32.4,17.3c0,0.6-0.4,0.8-1.2,0.8H12.6c-0.8,0-1.2-0.3-1.2-0.8c0-0.5,0.4-0.8,1.2-0.8h18.6
		C32.1,16.5,32.4,16.7,32.4,17.3z"/>
	<path class="st0" d="M35.8,21.3c0,0.4-0.4,0.7-0.9,0.8c-0.1,0-0.2,0-0.4,0H15.9c-0.2,0-0.4,0-0.6-0.1c-0.4-0.1-0.6-0.4-0.5-0.8
		c0-0.4,0.2-0.6,0.6-0.7c0.2,0,0.4-0.1,0.6-0.1c6.2,0,12.5,0,18.7,0c0.1,0,0.2,0,0.4,0C35.5,20.5,35.8,20.8,35.8,21.3z"/>
</g>
</svg>
