<?xml version="1.0" encoding="utf-8"?>
<!-- Generator: Adobe Illustrator 16.0.4, SVG Export Plug-In . SVG Version: 6.00 Build 0)  -->
<!DOCTYPE svg PUBLIC "-//W3C//DTD SVG 1.1//EN" "http://www.w3.org/Graphics/SVG/1.1/DTD/svg11.dtd">
<svg version="1.1" id="Calque_1" xmlns="http://www.w3.org/2000/svg" xmlns:xlink="http://www.w3.org/1999/xlink" x="0px" y="0px"
	 width="430.7px" height="409.8px" viewBox="0 0 430.7 409.8" style="enable-background:new 0 0 430.7 409.8;" xml:space="preserve"
	>
<style type="text/css">
<![CDATA[
	.st0{fill:none;stroke:#4A4B4B;stroke-width:9;stroke-miterlimit:10;}
	.st1{fill-rule:evenodd;clip-rule:evenodd;fill:none;stroke:#4A4B4B;stroke-width:9;stroke-miterlimit:10;}
	.st2{fill:#4A4B4B;}
	.st3{fill-rule:evenodd;clip-rule:evenodd;fill:none;stroke:#4A4B4B;stroke-width:19;stroke-miterlimit:10;}
	.st4{fill-rule:evenodd;clip-rule:evenodd;fill:#4A4B4B;}
	.st5{fill-rule:evenodd;clip-rule:evenodd;fill:none;stroke:#4A4B4B;stroke-width:8;stroke-miterlimit:10;}
	.st6{fill-rule:evenodd;clip-rule:evenodd;fill:none;stroke:#4A4B4B;stroke-width:13;stroke-miterlimit:10;}
	.st7{fill-rule:evenodd;clip-rule:evenodd;fill:none;stroke:#4A4B4B;stroke-width:17;stroke-miterlimit:10;}
	.st8{fill:none;stroke:#4A4B4B;stroke-width:17;stroke-miterlimit:10;}
]]>
</style>
<g>
	<path class="st4" d="M413,24.7c-2.4-2.5-5.9-2.9-10-1c-11.2,5.2-21,12.5-30.9,19.7c-59.7,42.9-117.4,88.3-172.3,137.2
		c-22.8,20.3-44.2,41.9-60.5,68c-0.9,1.4-1.9,1.7-3.4,1.6c-7.1-0.2-14,0.8-20.7,3.4C97,260.5,83.9,273.4,73,288.9
		c-6.4,9.2-10.8,19.5-15.5,29.6c-8,17.1-19,31.7-34.9,42.3c-2.8,1.9-5.7,3.8-9.2,4.2c-3.9,0.5-6.1,2.6-6.5,5.9
		c-0.4,3.5,1.5,6.2,5.2,7.5c18.8,6.4,38.2,10.2,58.1,10.3c5.9,0.1,11.7-0.4,17.5-1.2c18.4-2.3,35.2-8.7,49.9-20.3
		c17.6-13.9,28-32.6,34.8-53.5c2-6.1,4.1-12.2,4.5-18.5c0.2-2.5,0.9-3.8,2.9-4.8c21.9-10.8,40.9-25.3,57.9-42.9
		c23.9-24.8,47-50.2,69.4-76.3c29.2-34.1,57.8-68.8,84.8-104.7c7.7-10.2,15.6-20.2,21.5-31.6C415.9,30.8,415.6,27.5,413,24.7z
		 M163.1,297.1c-4.4,18.5-11.3,35.6-24,50.1c-14,15.9-31.9,24.1-52.5,26.8c-17.8,2.4-35.4,0.8-53.6-3.5c6.6-5.2,12.4-10.3,17.5-16.2
		c8.9-10.2,16-21.5,21.2-33.9c6.5-15.4,14.8-29.5,27.3-40.8c7.8-7.1,16.4-12.9,27-14.9c2.6-0.5,5.3-0.7,7.9-0.9
		c2.2-0.2,4.2,0.4,6,1.8c10.1,7.5,17.8,17,22.9,28.6C163.1,295,163.3,296,163.1,297.1z M356.9,89.6c-28.7,36.2-58.3,71.7-89.1,106.1
		c-18.8,21-37.8,41.6-58.8,60.4c-9.1,8.1-19.9,13.4-30.3,19.4c-2.1,1.2-4.3,3.7-6.3,3.1c-1.7-0.5-2.7-3.6-4-5.5
		c-4.3-6.1-9-11.9-14.7-16.7c-1.8-1.5-1.8-2.4-0.6-4.3c13.8-21,30.9-39,49.5-55.8c52.5-47.3,107.9-91,164.7-132.9
		c6.2-4.6,12.5-8.8,18.8-13.2c0.2,0.2,0.4,0.5,0.7,0.7C377.2,64.1,367.1,76.9,356.9,89.6z"/>
	<path class="st4" d="M228.1,273.8c1.7,0.4,2.5,1.9,3.6,3c37,36.9,73.9,73.9,110.9,110.9c5.1,5.1,10.8,5.1,15.9,0
		c16.1-16.1,32.3-32.2,48.4-48.3c5.4-5.4,5.3-9.5-0.1-15c-38.2-38.2-76.3-76.3-114.5-114.5c2.7-2.8,5.5-5.6,8.2-8.5
		c1.2-1.3,1.8-0.7,2.8,0.2c3.3,3.3,6.6,6.6,9.9,9.9c34.6,34.6,69.1,69.1,103.7,103.7c10.2,10.2,10.1,23.4-0.2,33.6
		c-16.3,16.2-32.8,32.2-48.7,48.8c-8,8.4-24.9,9.9-34.6,0.1c-31.7-32.3-63.9-64.1-95.9-96.1c-5.5-5.5-11-11-16.6-16.4
		c-1.8-1.7-1.6-2.7,0.1-4.2C223.4,278.7,225.7,276.2,228.1,273.8z"/>
	<path class="st4" d="M220.5,134.5c-1.5,0-2.1-1.3-3-2.2c-37.3-37.3-74.6-74.5-111.8-111.8c-5.9-5.9-9.7-5.9-15.7,0.1
		C74,36.6,58,52.5,42.1,68.5c-4.4,4.4-4.4,10.2,0.1,14.7C79.5,120.6,117,158,154.4,195.5c0.9,0.9,2.2,1.5,2.2,3
		c-2.6,2.5-5.3,4.9-7.7,7.6c-1.3,1.4-2,1.2-3.2-0.1c-5.3-5.4-10.7-10.7-16-16.1C97.1,157.3,64.6,124.8,32,92.3
		c-9.1-9.1-9.1-23.8,0-33c16.5-16.5,33-33,49.5-49.5C91.4,0,104.3,0,114.1,9.8c37.9,37.8,75.7,75.7,113.7,113.6
		c1.7,1.7,1.4,2.5-0.1,3.9C225.1,129.6,222.8,132.1,220.5,134.5z"/>
	<path class="st4" d="M353.2,358c-0.5-0.5-0.9-0.8-1.3-1.2c-2.3-2.2-4.5-4.6-6.8-6.7c-1.3-1.2-1.1-1.9,0-3
		c9.7-9.7,19.4-19.4,29.1-29.1c1.2-1.2,1.9-1.2,3,0c2.2,2.3,4.4,4.6,6.7,6.8c1.3,1.2,1.1,1.9-0.1,3c-9.8,9.6-19.5,19.3-29.2,29
		C354.3,357.2,353.7,357.6,353.2,358z"/>
	<path class="st4" d="M320.8,261.8c-0.5,0.6-0.9,1-1.3,1.5c-9.7,9.7-19.4,19.4-29.1,29.2c-1,1-1.7,1.4-2.8,0.1c-2.2-2.4-4.6-4.8-7-7
		c-1.3-1.2-0.8-1.8,0.1-2.8c9.8-9.8,19.6-19.6,29.3-29.4c0.6-0.6,1.2-1.6,2.3-0.4c2.5,2.6,5.1,5.1,7.7,7.7
		C320.3,261,320.5,261.4,320.8,261.8z"/>
	<path class="st4" d="M289.2,230.3c0.4,0.2,0.7,0.4,0.9,0.6c2.6,2.6,5.3,5.3,7.9,7.9c0.9,0.9,0.3,1.5-0.3,2.1
		c-6.2,6.2-12.5,12.4-18.7,18.7c-1,1-1.7,0.9-2.6-0.1c-2.3-2.4-4.6-4.7-7-7c-0.9-0.9-1.2-1.5-0.1-2.6c6.3-6.2,12.5-12.4,18.8-18.6
		C288.4,230.9,288.8,230.6,289.2,230.3z"/>
	<path class="st4" d="M332.6,273.6c0.5,0.4,0.9,0.7,1.3,1.1c2.3,2.3,4.6,4.7,7,6.9c1,1,1,1.6,0,2.6c-6.3,6.2-12.5,12.4-18.7,18.7
		c-0.8,0.8-1.4,1.1-2.3,0.1c-2.4-2.4-4.8-4.8-7.2-7.2c-1-0.9-1.1-1.6-0.1-2.6c6.3-6.2,12.5-12.4,18.8-18.6
		C331.7,274.2,332.1,273.9,332.6,273.6z"/>
	<path class="st4" d="M343,326.1c-0.5-0.4-0.9-0.8-1.2-1.1c-2.4-2.4-4.7-4.9-7.1-7.3c-1.1-1-0.8-1.6,0.1-2.5
		c6.2-6.1,12.4-12.3,18.5-18.5c1.1-1.1,1.8-1,2.8,0.1c2.2,2.3,4.4,4.6,6.8,6.8c1,1,1.3,1.6,0.1,2.8c-6.3,6.2-12.5,12.5-18.7,18.7
		C343.9,325.4,343.5,325.7,343,326.1z"/>
	<path class="st4" d="M146,148c-0.4-0.2-0.6-0.3-0.9-0.5c-0.3-0.2-0.5-0.4-0.7-0.7c-2.6-2.7-6.9-5.1-7.3-8c-0.4-2.8,4.4-5.2,6.9-7.7
		c7.5-7.7,15.2-15.2,22.8-22.9c1.5-1.6,2.5-1.7,4,0c2,2.2,4.2,4.3,6.3,6.3c0.9,0.8,1.3,1.4,0.2,2.5c-10,10-20,20-30.1,30
		C146.8,147.3,146.4,147.6,146,148z"/>
	<path class="st4" d="M80.9,83.2c-0.5-0.4-0.9-0.8-1.2-1.2c-2.3-2.2-4.5-4.6-6.8-6.7c-1.3-1.2-1.2-1.9,0-3
		c9.9-9.8,19.8-19.7,29.6-29.6c1.1-1.1,1.7-1.2,2.8,0c2.3,2.4,4.6,4.7,7,7c1,1,0.9,1.6,0,2.6c-10,10-20,20-30.1,30
		C81.8,82.6,81.3,82.9,80.9,83.2z"/>
	<path class="st4" d="M199.9,137.8c-0.4,0.5-0.8,0.9-1.1,1.3c-6.2,6.2-12.5,12.4-18.7,18.7c-1.1,1.1-1.9,1.4-3.1,0.1
		c-2.2-2.4-4.6-4.7-6.9-7c-1-1-1-1.6,0-2.6c6.4-6.3,12.8-12.7,19.2-19.1c0.6-0.6,1.2-1.2,2.1-0.3c2.6,2.7,5.2,5.3,7.8,7.9
		C199.5,137.1,199.6,137.4,199.9,137.8z"/>
	<path class="st4" d="M146.9,84.7c0.4,0.3,0.9,0.6,1.2,1c2.4,2.4,4.8,4.9,7.3,7.2c1.1,1,0.8,1.6-0.1,2.5c-6.3,6.3-12.7,12.6-18.9,19
		c-1.1,1.1-1.8,1.1-2.8,0c-2.3-2.4-4.6-4.7-7-7c-0.8-0.8-1.1-1.4-0.2-2.3c6.5-6.4,12.9-12.9,19.4-19.4
		C146.1,85.3,146.5,85.1,146.9,84.7z"/>
	<path class="st4" d="M134.8,72.6c-0.4,0.5-0.8,0.9-1.2,1.4c-6.2,6.3-12.5,12.5-18.7,18.8c-1,1-1.7,1.3-2.8,0.1
		c-2.2-2.4-4.6-4.7-7-7c-1-0.9-1-1.6,0-2.6c6.4-6.4,12.8-12.8,19.2-19.1c0.6-0.6,1.1-1.3,2.1-0.3c2.6,2.7,5.2,5.3,7.9,7.9
		C134.4,71.9,134.5,72.2,134.8,72.6z"/>
</g>
</svg>
