<svg xmlns="http://www.w3.org/2000/svg" width="50" height="50" viewBox="0 0 50 50"><style>.st0{fill-rule:evenodd;clip-rule:evenodd;fill:#2b2b28}</style><g id="Calque_1"><path class="st0" d="M42.7 14.3V5.4c0-2.7-2-4.6-4.6-4.6H15.6c-.3 0-.5.1-.7.3-2.3 2.3-4.6 4.6-6.9 6.8-.5.6-.7 1.1-.7 1.9V45c.1 2.4 2.1 4.2 4.4 4.2h26.4c.5 0 1-.1 1.5-.3 1.9-.7 3-2.4 3-4.7V25c.1-3.6.1-7.1.1-10.7zm-2-.8v30.9c0 1.7-1 2.7-2.7 2.7H12c-1.1 0-1.9-.5-2.4-1.5-.2-.4-.2-.8-.2-1.2V26.1 9.2c0-.4.1-.5.5-.5h5c.3 0 .4-.1.4-.4v-5c0-.3.1-.4.4-.4h22.6c1.5 0 2.5 1.1 2.6 2.6-.2 2.6-.2 5.3-.2 8z"/><path class="st0" d="M36.6 22.2H13.4c-.9 0-1-.1-1.1-1v-.4c0-.7.2-.9.9-.9H37c.8 0 .9.1.9.9 0 1.3 0 1.4-1.3 1.4zM36.6 27.7H13.2c-.7 0-.9-.2-.9-.9 0-1.3 0-1.4 1.4-1.4H37c.8 0 1 .1 1 1-.1 1.3-.1 1.3-1.4 1.3zM36.6 33.2H13.3c-.9 0-1-.1-1-1 0-1.3 0-1.3 1.3-1.3H37c.8 0 1 .1 1 1-.1 1.3-.1 1.3-1.4 1.3zM37.9 37.4c0 1.3 0 1.3-1.3 1.3H13.2c-.8 0-.9-.1-.9-.9 0-1.4 0-1.4 1.4-1.4H36.9c.9.1 1 .2 1 1zM36.7 44.3H13.2c-.7 0-.8-.1-.8-.9 0-1.4 0-1.4 1.4-1.4H37c.8 0 .9.1 1 1-.1 1.2-.1 1.3-1.3 1.3zM38.2 6.7c-.5 1.5-1 2.9-1.5 4.4-.3.9-.6 1.9-1 2.8-.1.3-.2.5-.5.4-.5-.1-1.1.2-1.4-.1-.3-.3-.4-.8-.5-1.3l-2.1-6.3c-.2-.2-.2-.3.2-.3 1.3 0 1.3 0 1.7 1.2.5 1.6 1.1 3.2 1.5 4.9 0 .1.1.1.1.2.5-2.1 1.2-4.1 1.8-6.1.1-.2.2-.2.4-.2h1c.3 0 .4.1.3.4zM26.4 9c-.3.9-.3 1.8 0 2.7.3 1 1 1.4 2 1.4.5 0 1.1-.1 1.6-.3.2-.1.3 0 .3.2.1 1.1 0 1.3-1.2 1.4-.5.1-1 .1-1.5.1-1.8-.2-2.9-1.4-3.1-3.3v-.7c0-1.4.3-2.7 1.5-3.6 1.4-1 2.9-.8 4.4-.2.1 0 .2.1.2.2-.1.4-.3.8-.5 1.2-.1.2-.2 0-.3 0-.4-.2-.8-.3-1.2-.4-1.1-.2-1.8.3-2.2 1.3z"/></g></svg>