<svg xmlns="http://www.w3.org/2000/svg" width="50" height="50" viewBox="0 0 50 50"><path d="M46.4 34.8c-.601-1.5-1.5-2.8-2.2-4.2-1.601-3-3.2-5.899-4.8-8.8-1.4-2.5-2.7-5-4.101-7.6-.2-.4-.2-.4.2-.6 1.1-.4 2.1-1 2.8-1.9 2.2-2.5 2.101-6.2-.2-8.6-1-1.1-2.3-1.7-3.8-1.8.2.2.5.1.7.2 4.2 1 6.1 6 3.6 9.6-.899 1.4-2.199 2.2-3.8 2.6.101.2.2.3.3.5C38.7 20.8 42.2 27.4 45.8 34c.9 1.8 1.2 3.6.601 5.5-.801 2.6-2.601 4.1-5.301 4.7-.3.1-.399.2-.399.5v3c0 .5-.101.899-.601 1.1.601-.2.7-.3.7-.899v-3c0-.4.101-.5.5-.601 1.4-.3 2.601-1 3.7-2 1.9-2 2.4-5.1 1.4-7.5zm-9.2 11.8c-.2-.2-.3-.2-.6 0-.8.7-1.7 1.4-2.5 2.1.301-.101.5-.3.801-.5.6-.5 1.199-1 1.8-1.601.099.001.199-.099.499.001.399.5.899.9 1.3 1.301.4.3.7.699 1.2.8C38.9 48 38 47.3 37.2 46.6zm-4.2 1v-2.9c0-.4-.1-.5-.5-.5H11c-4.8-.3-7.5-5.5-4.9-9.601 1.2-1.899 3-2.8 5.3-2.899h2.9c-.1-.2-.2-.4-.3-.5-3.2-6.2-6.5-12.3-9.7-18.5-.5-1-.9-2-1-3.1-.3-4 2.3-7.4 6.2-8.2.1 0 .3 0 .4-.2-1.3.2-2.5.7-3.5 1.4-2.1 1.6-3.2 3.7-3.3 6.3 0 1.6.5 3 1.2 4.3 1.2 2.1 2.3 4.3 3.4 6.5.7 1.3 1.4 2.7 2.1 4 1.3 2.5 2.6 5 4 7.5.2.4.1.4-.3.4h-1.9c-1.1 0-2.2.2-3.2.801-3.1 1.6-4.6 6-2.1 9.399 1.3 1.8 3.1 2.601 5.3 2.601h20.5c.801 0 .801 0 .801.8V47.6c0 .5.1 1 .8 1.2-.601-.3-.701-.7-.701-1.2z"/><path d="M45.8 34c-3.6-6.6-7.1-13.2-10.7-19.8-.1-.2-.2-.3-.3-.5 1.601-.4 2.9-1.3 3.8-2.6 2.5-3.6.6-8.5-3.6-9.6-.2-.1-.5 0-.7-.2H9.8c-.1.2-.3.1-.4.2-3.9.8-6.5 4.2-6.1 8.2.1 1.1.5 2.1 1 3.1C7.5 19 10.8 25.1 14 31.3c.1.101.1.3.3.5h-2.9c-2.3 0-4.1 1-5.3 2.9-2.6 4 .1 9.2 4.9 9.6h21.5c.4 0 .5.101.5.5v2.9c0 .5.1.899.6 1.1h.5c.801-.7 1.7-1.399 2.5-2.1.2-.2.301-.2.601 0 .8.7 1.7 1.399 2.5 2.1h.5c.5-.2.6-.6.6-1.1v-3c0-.3.101-.4.4-.5 2.7-.5 4.399-2.101 5.3-4.7.599-2 .299-3.8-.701-5.5zM15.7 2.9h17.6c1.601 0 3 .6 4 1.9 1.601 2.1 1 5.4-1.3 6.6-.8.4-1.6.7-2.5.7H15.2c2.8-2.9 2.4-6.8 0-9.2h.5zm-1.1 38.5c-1.5 1.199-3.2 1.5-5 .8-1.7-.601-2.9-2.5-2.9-4.3 0-1.9 1.3-3.7 3.1-4.3 1-.3 2-.199 2.9-.199h2c.3 0 .4.1.5.3.4.899 1 1.8 1.2 2.8.3 1.999-.3 3.699-1.8 4.899zm24.5 4.7l-1.5-1.2c-.6-.5-.899-.5-1.6 0-.5.399-.9.8-1.4 1.199h-.1v-6.8c1.5.7 3 .7 4.5 0v6.8h.1zm-2.1-8c-1.8 0-3.4-1.399-3.4-3.3 0-1.8 1.4-3.3 3.301-3.399 1.8 0 3.3 1.5 3.3 3.3S38.7 38.1 37 38.1zm4.3 4.4c-.399.1-.5 0-.5-.4v-3.7c0-.3.1-.6.2-.8 1.3-1.899 1.1-4.199-.5-6.1-1.4-1.6-3.8-2-5.8-1.1-2.7 1.3-3.6 4.7-2 7.2.2.2.2.5.2.801v4c0 .3-.101.3-.301.3H15.7c.9-.8 1.5-1.7 1.9-2.7.8-2 .6-4-.4-5.9-3-5.6-5.9-11.2-8.9-16.8-1-1.9-2.1-3.8-3-5.8C4.4 9.2 4.7 7.1 6.1 5.3 7.5 3.5 9.3 2.7 11.5 3c2 .3 3.3 1.5 3.8 3.4.5 1.8-.1 3.3-1.5 4.6-.8.7-1.7 1.1-2.8 1.1-.6 0-1 .3-1 .8s.4.8 1.1.8h21.5c.301 0 .5.1.601.4C37 21 40.7 27.9 44.4 34.8c1.8 3.2 0 6.9-3.1 7.7z"/><path d="M32.4 17.3c0 .6-.4.8-1.2.8H12.6c-.8 0-1.2-.3-1.2-.8s.4-.8 1.2-.8h18.6c.9 0 1.2.2 1.2.8zm3.4 4c0 .4-.399.7-.899.8h-19c-.2 0-.4 0-.6-.1-.4-.1-.6-.4-.5-.8 0-.4.2-.6.6-.7.2 0 .4-.1.6-.1h19.1c.399.1.699.4.699.9z"/></svg>