<svg xmlns="http://www.w3.org/2000/svg" width="50" height="50" viewBox="0 0 50 50"><path d="M48.2 22.7l-4.3-3.6-3-2.4L26.1 4.3c-.6-.6-1.5-.6-2.1 0L9 16.6 6 19l-4.3 3.6c-.6.6-.6 2.2 0 2.8l2.9.1h.8c.4.1.6.4.6.8v18.4c0 .8.6 1.4 1.4 1.4h35c.8 0 1.4-.6 1.4-1.4V26.3c0-.4.2-.7.6-.8h1.1l2.6-.1c.7-.6.7-2.1.1-2.7zm-5 2.1h-2.8c-.3.1-.6.4-.6.8V42c0 .6-.5 1.1-1.1 1.1h-4.5-2.9-.1c-.7 0-1.3-.6-1.3-1.4v-8.3c0-.8-.6-1.4-1.4-1.4h-7.1c-.8 0-1.4.6-1.4 1.4v8.3c0 .8-.6 1.3-1.3 1.4h-2.9-4.5c-.6 0-1.1-.5-1.1-1.1V25.7c0-.4-.2-.7-.6-.8H6.9c-.5-.5-.5-1.2 0-1.7l3.4-2.8 2.3-1.9 11.6-9.6c.5-.5 1.2-.5 1.7 0l11.6 9.6 2.3 1.9 3.4 2.8c.4.4.4 1.2 0 1.6z"/></svg>