<svg id="Calque_1" xmlns="http://www.w3.org/2000/svg" width="50" height="50" viewBox="0 0 50 50"><style>.st0{fill-rule:evenodd;clip-rule:evenodd;fill:#020202}</style><path class="st0" d="M46.4 16c0 8.5.1 17.1 0 25.6 0 4-2 5.9-5.9 5.9H8.2c-4.1 0-6-1.9-6-6.1V7.8C2.7 5.8 4 4.3 6 3.5h30.4c-1.4 2.3-2.9 3.3-5.6 3.2-7.4-.1-14.8 0-22.2 0-2.3 0-3.2.7-3.2 3.1.1 10.5.1 21 0 31.5 0 2.1.7 3.1 2.9 3 2.9-.1 24.3.2 30.1.1 3.4 0 3.8-1.6 3.9-5 .1-6.5 0-13 .1-19.4 0-1.5-.2-3.1 1.4-4.1l1.7-1.7c1.3.2.9 1.1.9 1.8z"/><path class="st0" d="M46.1 4.5c-2.8-2.8-5.5-2.7-8.5.3-6.6 6.5-13.3 13.1-19.8 19.7-1 1-2.1 1.8-2.4 3.3-.3 1.9-.4 3.8-.3 5.7 0 .6.1 1.3.9 1.6 1.9.8 7.3-.4 8.9-2 6.2-6.1 12.4-12.2 18.5-18.4.7-.8 1.4-1.6 2.1-2.3 2.9-2.8 3.1-5.5.6-7.9zM43.5 10c-7 7-14 13.9-21 20.9-.7.7-3.2 1.5-3.2 1.5s-1.6.5-1.7-.5c-.1-1.3.4-3.1 1.6-4.3 4.7-4.6 9.3-9.3 14-13.9 2.3-2.3 4.7-4.6 7-7 1.2-1.3 2.4-1.3 3.7-.1 1.4 1.3.6 2.4-.4 3.4z"/></svg>