<svg xmlns="http://www.w3.org/2000/svg" xmlns:xlink="http://www.w3.org/1999/xlink" style="display:none"><symbol  viewBox='0 0 50 50' id='icon-CV'>
    <style>.st0{fill-rule:evenodd;clip-rule:evenodd;fill:#2b2b28}</style><g id="Calque_1"><path class="st0" d="M42.7 14.3V5.4c0-2.7-2-4.6-4.6-4.6H15.6c-.3 0-.5.1-.7.3-2.3 2.3-4.6 4.6-6.9 6.8-.5.6-.7 1.1-.7 1.9V45c.1 2.4 2.1 4.2 4.4 4.2h26.4c.5 0 1-.1 1.5-.3 1.9-.7 3-2.4 3-4.7V25c.1-3.6.1-7.1.1-10.7zm-2-.8v30.9c0 1.7-1 2.7-2.7 2.7H12c-1.1 0-1.9-.5-2.4-1.5-.2-.4-.2-.8-.2-1.2V26.1 9.2c0-.4.1-.5.5-.5h5c.3 0 .4-.1.4-.4v-5c0-.3.1-.4.4-.4h22.6c1.5 0 2.5 1.1 2.6 2.6-.2 2.6-.2 5.3-.2 8z"></path><path class="st0" d="M36.6 22.2H13.4c-.9 0-1-.1-1.1-1v-.4c0-.7.2-.9.9-.9H37c.8 0 .9.1.9.9 0 1.3 0 1.4-1.3 1.4zM36.6 27.7H13.2c-.7 0-.9-.2-.9-.9 0-1.3 0-1.4 1.4-1.4H37c.8 0 1 .1 1 1-.1 1.3-.1 1.3-1.4 1.3zM36.6 33.2H13.3c-.9 0-1-.1-1-1 0-1.3 0-1.3 1.3-1.3H37c.8 0 1 .1 1 1-.1 1.3-.1 1.3-1.4 1.3zM37.9 37.4c0 1.3 0 1.3-1.3 1.3H13.2c-.8 0-.9-.1-.9-.9 0-1.4 0-1.4 1.4-1.4H36.9c.9.1 1 .2 1 1zM36.7 44.3H13.2c-.7 0-.8-.1-.8-.9 0-1.4 0-1.4 1.4-1.4H37c.8 0 .9.1 1 1-.1 1.2-.1 1.3-1.3 1.3zM38.2 6.7c-.5 1.5-1 2.9-1.5 4.4-.3.9-.6 1.9-1 2.8-.1.3-.2.5-.5.4-.5-.1-1.1.2-1.4-.1-.3-.3-.4-.8-.5-1.3l-2.1-6.3c-.2-.2-.2-.3.2-.3 1.3 0 1.3 0 1.7 1.2.5 1.6 1.1 3.2 1.5 4.9 0 .1.1.1.1.2.5-2.1 1.2-4.1 1.8-6.1.1-.2.2-.2.4-.2h1c.3 0 .4.1.3.4zM26.4 9c-.3.9-.3 1.8 0 2.7.3 1 1 1.4 2 1.4.5 0 1.1-.1 1.6-.3.2-.1.3 0 .3.2.1 1.1 0 1.3-1.2 1.4-.5.1-1 .1-1.5.1-1.8-.2-2.9-1.4-3.1-3.3v-.7c0-1.4.3-2.7 1.5-3.6 1.4-1 2.9-.8 4.4-.2.1 0 .2.1.2.2-.1.4-.3.8-.5 1.2-.1.2-.2 0-.3 0-.4-.2-.8-.3-1.2-.4-1.1-.2-1.8.3-2.2 1.3z"></path></g>
  </symbol><symbol  viewBox='0 0 50 50' id='icon-Home'>
    <path d="M48.2 22.7l-4.3-3.6-3-2.4L26.1 4.3c-.6-.6-1.5-.6-2.1 0L9 16.6 6 19l-4.3 3.6c-.6.6-.6 2.2 0 2.8l2.9.1h.8c.4.1.6.4.6.8v18.4c0 .8.6 1.4 1.4 1.4h35c.8 0 1.4-.6 1.4-1.4V26.3c0-.4.2-.7.6-.8h1.1l2.6-.1c.7-.6.7-2.1.1-2.7zm-5 2.1h-2.8c-.3.1-.6.4-.6.8V42c0 .6-.5 1.1-1.1 1.1h-4.5-2.9-.1c-.7 0-1.3-.6-1.3-1.4v-8.3c0-.8-.6-1.4-1.4-1.4h-7.1c-.8 0-1.4.6-1.4 1.4v8.3c0 .8-.6 1.3-1.3 1.4h-2.9-4.5c-.6 0-1.1-.5-1.1-1.1V25.7c0-.4-.2-.7-.6-.8H6.9c-.5-.5-.5-1.2 0-1.7l3.4-2.8 2.3-1.9 11.6-9.6c.5-.5 1.2-.5 1.7 0l11.6 9.6 2.3 1.9 3.4 2.8c.4.4.4 1.2 0 1.6z"></path>
  </symbol><symbol  viewBox='0 0 50 50' id='icon-diploma'>
    <path d="M46.4 34.8c-.601-1.5-1.5-2.8-2.2-4.2-1.601-3-3.2-5.899-4.8-8.8-1.4-2.5-2.7-5-4.101-7.6-.2-.4-.2-.4.2-.6 1.1-.4 2.1-1 2.8-1.9 2.2-2.5 2.101-6.2-.2-8.6-1-1.1-2.3-1.7-3.8-1.8.2.2.5.1.7.2 4.2 1 6.1 6 3.6 9.6-.899 1.4-2.199 2.2-3.8 2.6.101.2.2.3.3.5C38.7 20.8 42.2 27.4 45.8 34c.9 1.8 1.2 3.6.601 5.5-.801 2.6-2.601 4.1-5.301 4.7-.3.1-.399.2-.399.5v3c0 .5-.101.899-.601 1.1.601-.2.7-.3.7-.899v-3c0-.4.101-.5.5-.601 1.4-.3 2.601-1 3.7-2 1.9-2 2.4-5.1 1.4-7.5zm-9.2 11.8c-.2-.2-.3-.2-.6 0-.8.7-1.7 1.4-2.5 2.1.301-.101.5-.3.801-.5.6-.5 1.199-1 1.8-1.601.099.001.199-.099.499.001.399.5.899.9 1.3 1.301.4.3.7.699 1.2.8C38.9 48 38 47.3 37.2 46.6zm-4.2 1v-2.9c0-.4-.1-.5-.5-.5H11c-4.8-.3-7.5-5.5-4.9-9.601 1.2-1.899 3-2.8 5.3-2.899h2.9c-.1-.2-.2-.4-.3-.5-3.2-6.2-6.5-12.3-9.7-18.5-.5-1-.9-2-1-3.1-.3-4 2.3-7.4 6.2-8.2.1 0 .3 0 .4-.2-1.3.2-2.5.7-3.5 1.4-2.1 1.6-3.2 3.7-3.3 6.3 0 1.6.5 3 1.2 4.3 1.2 2.1 2.3 4.3 3.4 6.5.7 1.3 1.4 2.7 2.1 4 1.3 2.5 2.6 5 4 7.5.2.4.1.4-.3.4h-1.9c-1.1 0-2.2.2-3.2.801-3.1 1.6-4.6 6-2.1 9.399 1.3 1.8 3.1 2.601 5.3 2.601h20.5c.801 0 .801 0 .801.8V47.6c0 .5.1 1 .8 1.2-.601-.3-.701-.7-.701-1.2z"></path><path d="M45.8 34c-3.6-6.6-7.1-13.2-10.7-19.8-.1-.2-.2-.3-.3-.5 1.601-.4 2.9-1.3 3.8-2.6 2.5-3.6.6-8.5-3.6-9.6-.2-.1-.5 0-.7-.2H9.8c-.1.2-.3.1-.4.2-3.9.8-6.5 4.2-6.1 8.2.1 1.1.5 2.1 1 3.1C7.5 19 10.8 25.1 14 31.3c.1.101.1.3.3.5h-2.9c-2.3 0-4.1 1-5.3 2.9-2.6 4 .1 9.2 4.9 9.6h21.5c.4 0 .5.101.5.5v2.9c0 .5.1.899.6 1.1h.5c.801-.7 1.7-1.399 2.5-2.1.2-.2.301-.2.601 0 .8.7 1.7 1.399 2.5 2.1h.5c.5-.2.6-.6.6-1.1v-3c0-.3.101-.4.4-.5 2.7-.5 4.399-2.101 5.3-4.7.599-2 .299-3.8-.701-5.5zM15.7 2.9h17.6c1.601 0 3 .6 4 1.9 1.601 2.1 1 5.4-1.3 6.6-.8.4-1.6.7-2.5.7H15.2c2.8-2.9 2.4-6.8 0-9.2h.5zm-1.1 38.5c-1.5 1.199-3.2 1.5-5 .8-1.7-.601-2.9-2.5-2.9-4.3 0-1.9 1.3-3.7 3.1-4.3 1-.3 2-.199 2.9-.199h2c.3 0 .4.1.5.3.4.899 1 1.8 1.2 2.8.3 1.999-.3 3.699-1.8 4.899zm24.5 4.7l-1.5-1.2c-.6-.5-.899-.5-1.6 0-.5.399-.9.8-1.4 1.199h-.1v-6.8c1.5.7 3 .7 4.5 0v6.8h.1zm-2.1-8c-1.8 0-3.4-1.399-3.4-3.3 0-1.8 1.4-3.3 3.301-3.399 1.8 0 3.3 1.5 3.3 3.3S38.7 38.1 37 38.1zm4.3 4.4c-.399.1-.5 0-.5-.4v-3.7c0-.3.1-.6.2-.8 1.3-1.899 1.1-4.199-.5-6.1-1.4-1.6-3.8-2-5.8-1.1-2.7 1.3-3.6 4.7-2 7.2.2.2.2.5.2.801v4c0 .3-.101.3-.301.3H15.7c.9-.8 1.5-1.7 1.9-2.7.8-2 .6-4-.4-5.9-3-5.6-5.9-11.2-8.9-16.8-1-1.9-2.1-3.8-3-5.8C4.4 9.2 4.7 7.1 6.1 5.3 7.5 3.5 9.3 2.7 11.5 3c2 .3 3.3 1.5 3.8 3.4.5 1.8-.1 3.3-1.5 4.6-.8.7-1.7 1.1-2.8 1.1-.6 0-1 .3-1 .8s.4.8 1.1.8h21.5c.301 0 .5.1.601.4C37 21 40.7 27.9 44.4 34.8c1.8 3.2 0 6.9-3.1 7.7z"></path><path d="M32.4 17.3c0 .6-.4.8-1.2.8H12.6c-.8 0-1.2-.3-1.2-.8s.4-.8 1.2-.8h18.6c.9 0 1.2.2 1.2.8zm3.4 4c0 .4-.399.7-.899.8h-19c-.2 0-.4 0-.6-.1-.4-.1-.6-.4-.5-.8 0-.4.2-.6.6-.7.2 0 .4-.1.6-.1h19.1c.399.1.699.4.699.9z"></path>
  </symbol><symbol  viewBox='0 0 50 50' id='icon-joindre'>
    <style>.st0{fill-rule:evenodd;clip-rule:evenodd;fill:#020202}</style><path class="st0" d="M46.4 16c0 8.5.1 17.1 0 25.6 0 4-2 5.9-5.9 5.9H8.2c-4.1 0-6-1.9-6-6.1V7.8C2.7 5.8 4 4.3 6 3.5h30.4c-1.4 2.3-2.9 3.3-5.6 3.2-7.4-.1-14.8 0-22.2 0-2.3 0-3.2.7-3.2 3.1.1 10.5.1 21 0 31.5 0 2.1.7 3.1 2.9 3 2.9-.1 24.3.2 30.1.1 3.4 0 3.8-1.6 3.9-5 .1-6.5 0-13 .1-19.4 0-1.5-.2-3.1 1.4-4.1l1.7-1.7c1.3.2.9 1.1.9 1.8z"></path><path class="st0" d="M46.1 4.5c-2.8-2.8-5.5-2.7-8.5.3-6.6 6.5-13.3 13.1-19.8 19.7-1 1-2.1 1.8-2.4 3.3-.3 1.9-.4 3.8-.3 5.7 0 .6.1 1.3.9 1.6 1.9.8 7.3-.4 8.9-2 6.2-6.1 12.4-12.2 18.5-18.4.7-.8 1.4-1.6 2.1-2.3 2.9-2.8 3.1-5.5.6-7.9zM43.5 10c-7 7-14 13.9-21 20.9-.7.7-3.2 1.5-3.2 1.5s-1.6.5-1.7-.5c-.1-1.3.4-3.1 1.6-4.3 4.7-4.6 9.3-9.3 14-13.9 2.3-2.3 4.7-4.6 7-7 1.2-1.3 2.4-1.3 3.7-.1 1.4 1.3.6 2.4-.4 3.4z"></path>
  </symbol></svg>