<?xml version="1.0" encoding="utf-8"?>
<!-- Generator: Adobe Illustrator 16.0.4, SVG Export Plug-In . SVG Version: 6.00 Build 0)  -->
<!DOCTYPE svg PUBLIC "-//W3C//DTD SVG 1.1//EN" "http://www.w3.org/Graphics/SVG/1.1/DTD/svg11.dtd">
<svg version="1.1" id="Calque_1" xmlns="http://www.w3.org/2000/svg" aria-labelledby="title" xmlns:xlink="http://www.w3.org/1999/xlink" x="0px" y="0px"
	 width="800px" height="600px" viewBox="0 0 800 600" style="enable-background:new 0 0 800 600;" xml:space="preserve"><title id="title">Aptitudes: Graphique Design</title>
<g>
	<path d="M736.9,185.5c-10.3-23.8-31.2-10.3-47.3-13.8c-2.6-0.5-5.5-0.4-8.1,0c-15.8,2.2-24.2-2.8-21.3-20.3
		c4-24.6-7.9-30.4-30.8-30c-73.7,1.2-147.5,0.6-221.3,0.4c-23.3-0.1-54.5,8.1-67.7-3.6c-15.5-13.7-4.3-45.6-4.9-69.5
		c-0.9-35.8-0.3-35.9-35.2-35.9c-60.7-0.1-60.7-0.1-60.7,59.1c0,54.8,0.1,54.3-55.6,50.3c-11.9-0.8-15.3-4.7-14.9-16
		c0.7-18.9,0.2-37.8,0.1-56.7c0-8.4-1.1-15.7-11-19.1C102.6,11.5,54.6,44.9,54.5,103.3c-0.2,119.7-0.2,239.3,0,359
		c0.1,49.6,20.8,70.6,70.5,70.8c71.1,0.3,142.1,0.8,213.2-0.4c19.5-0.3,28.9,3.6,25.4,24.8c-4.1,24.6,8.4,30.3,31.1,29.7
		c53.9-1.5,107.9-0.5,161.9-0.5h67.5c7.4,0,15-0.1,17.8-8.6c2.3-7.3-3.7-11.3-7.6-16.1c-7-8.8-18.3-14.2-23.2-28.8
		c6.5,0,10,0,13.7-0.1c35.5-0.2,35.5-0.2,35.5-35.2V325.2c0-44.1,0-43.9,43.4-44.4c10.4-0.1,24.2,4.4,29.9-6.7
		C748.3,245.5,749.8,215.6,736.9,185.5z M655.6,195.8c8.1,0,14.6,2.1,14.3,11.7c-0.3,10.5-8.9,6.8-14.1,6.8
		c-39.6,0.3-79.2,0.1-118.8,0.2c-8.6,0-17.6-0.1-16.9-11.6c0.7-11.5,10.8-6.6,16.7-6.8c19.8-0.8,39.7-0.4,59.4-0.3
		C616,195.8,635.8,195.9,655.6,195.8z M275.1,338.1c-13,0.7-11.1-8-11.4-16c-0.4-9.9,0.3-17.9,13.7-16.8c7,0.6,12.5-3.5,12.4-11
		c-0.1-7.4-5.6-11.4-12.7-10.8c-13.7,1.1-13.7-7.4-13.5-17c0.2-8.3-1.1-16.6,11.7-15.8c8.2,0.5,14.6-4,14.6-12.4
		c0-7.3-6.9-10.5-13.5-10.2c-11.7,0.5-12.8-6.3-12.9-15.4c-0.1-9.7-0.3-17.9,13.3-17.6c6.6,0.2,13.3-4.2,13.2-11.1
		c0-8.3-7.4-12.2-15-12.2c-12.7,0.1-11.3-8.3-11.3-16.4c0-8.4-0.5-16.4,11.9-16.2c7.3,0.1,15.2-2.3,14.2-11.9
		c-0.7-6.9-6.4-11.1-13.5-10.6c-14.5,1.2-12.4-8.7-12.6-17.6c-0.2-8.9,0.4-16.2,12.5-15.2c7,0.6,13-2.9,13.6-10
		c0.7-9-6-12.7-14-12.1c-12.5,0.8-11.6-7.2-12-15.6c-0.7-13.5,8.9-9.9,16.3-11c23.9-3.7,35,2,33.4,30.4c-2.9,48.4-0.9,97-0.9,145.5
		c0,52.1,0.2,104.2-0.2,156.3c0,7,4.7,18.5-8.2,18.8c-13.1,0.4-28,5.4-38.8-3.3c-3.8-3-7.9-20,8.6-21.9c7.4-0.9,15.7-1.9,15.9-10.7
		C290.1,342.1,283.2,337.6,275.1,338.1z M77.5,96.2c0.2-33.5,31.1-53.9,61.9-43.2c8.9,3.1,6.9,9.4,6.9,15
		c0.1,112.3-0.1,224.5,0.4,336.8c0.1,13.5-6.5,14-16.5,13.7c-17.1-0.6-34.2-0.9-52.9,11.7C77.3,315.3,76.9,205.8,77.5,96.2z
		 M397.6,564.2c-11.2,0-10.2-7.5-10.2-14.7V353.4c71.2,71.4,139.9,140.3,210.1,210.7C531.1,564.1,464.4,564,397.6,564.2z M617,511
		c-24.5,1.5-41.5-6.3-58.6-24.1C504.9,431,449.5,377,394.7,322.4c-6.7-6.7-13.1-17.5-24.6-11.6c-9.4,4.9-6.6,15.8-6.6,24.6
		c-0.1,51.3-0.6,102.6,0.3,153.8c0.3,15.4-2,21.8-20,21.5c-73.7-1.2-147.5-0.3-221.3-0.6C95.4,510,79,497.6,78,477.3
		c-1.1-21.6,15.7-35.4,44.1-36.4c47.1-1.6,47.1-1.6,47.1-47.8c0-74.7,0.5-149.3-0.4-224c-0.2-18,3.5-25.1,23.4-24.7
		c47.3,0.8,47.4-0.3,47.4,46.1c0,63.9,0.6,127.7-0.3,191.6c-0.3,20.8,6.7,28.2,27.9,28.4c68.1,0.4,68.1,1.1,68.1-65.6
		c0-60.3,0.5-120.5-0.4-180.8c-0.2-15.6,4.6-19.8,19.7-19.5c44.2,1,88.3,0.4,132.3,0.4c44.1,0,88.2,0.1,132.2-0.1
		c10.6-0.1,19.1-0.5,18.8,14.8c-0.3,15.6-10.5,11.5-18.5,11.7c-19.8,0.4-40,2.6-59.3-0.4c-47.8-7.4-84.7,13.5-120.7,40.5
		c-15.8,11.9-13.3,17.6,0.2,30.2c42.8,40.2,94.1,41.8,148,39.6c49.9-2.1,49.9-0.4,49.9,49.8c0,53.1-0.8,106.2,0.5,159.2
		C638.4,507.6,632.7,510,617,511z M492.4,255.1c-4.9-21.3-3.4-35.8-1.4-58.2C501.1,219.1,500.8,233.6,492.4,255.1z M669.9,246.3
		c-0.4,8-5,10.7-12.4,10.7c-21.6,0.1-43.2,0.1-64.8,0.1c-20.7,0-41.4,0.1-62.1-0.1c-4.9,0-11.5,1.2-10.8-7.4
		c0.5-6,3.4-10.8,9.7-10.9c44.1-0.3,88.2-0.2,132.3-0.2C666.8,238.5,670.2,240.4,669.9,246.3z M719.2,248.3
		c-1.9,12.3-11.5,9-18.8,8.9c-12.5-0.1-7.8-9.1-6.5-15.3c1.8-8.8,2.4-17.4,1.1-26.4c-1-7.1-10-17.9,6.7-19.9
		c12.5-1.5,18.1,3.9,19.1,15.8c0.4,5.2,1.5,10.5,2.4,16.5C721.9,234.3,720.3,241.2,719.2,248.3z"/>
	<path d="M531,520.6c-32.9-34.2-66.9-67.4-100.4-101c-4.6-4.7-10.2-8.7-16.6-5c-5.6,3.3-7.2,9.8-7.2,16.4c0.1,15.2,0,30.5,0,45.7
		c0,66.5,0,66.5,66.4,66.5c16.1,0,32.3,0.5,48.4-0.2C539.7,542.3,542,532.1,531,520.6z M433,458.4c20.8,20.4,40.3,39.4,59.9,58.5
		C433.2,531.2,425.7,524,433,458.4z"/>
</g>
</svg>
