<?xml version="1.0" encoding="utf-8"?>
<!-- Generator: Adobe Illustrator 16.0.4, SVG Export Plug-In . SVG Version: 6.00 Build 0)  -->
<!DOCTYPE svg PUBLIC "-//W3C//DTD SVG 1.1//EN" "http://www.w3.org/Graphics/SVG/1.1/DTD/svg11.dtd">
<svg version="1.1" id="Calque_1" xmlns="http://www.w3.org/2000/svg" xmlns:xlink="http://www.w3.org/1999/xlink" x="0px" y="0px"
	 width="50px" height="50px" viewBox="0 0 50 50" style="enable-background:new 0 0 50 50;" xml:space="preserve">
<style type="text/css">
<![CDATA[
	.st0{fill-rule:evenodd;clip-rule:evenodd;fill:#020202;}
]]>
</style>
<g>
	<path class="st0" d="M46.4,16c0,8.5,0.1,17.1,0,25.6c0,4-2,5.9-5.9,5.9c-10.8,0-21.5,0-32.3,0c-4.1,0-6-1.9-6-6.1
		c0-11.2,0-22.4,0-33.6C2.7,5.8,4,4.3,6,3.5h30.4c-1.4,2.3-2.9,3.3-5.6,3.2C23.4,6.6,16,6.7,8.6,6.7c-2.3,0-3.2,0.7-3.2,3.1
		c0.1,10.5,0.1,21,0,31.5c0,2.1,0.7,3.1,2.9,3c2.9-0.1,24.3,0.2,30.1,0.1c3.4,0,3.8-1.6,3.9-5c0.1-6.5,0-13,0.1-19.4
		c0-1.5-0.2-3.1,1.4-4.1c0.6-0.6,1.1-1.1,1.7-1.7C46.8,14.4,46.4,15.3,46.4,16z"/>
	<path class="st0" d="M46.1,4.5c-2.8-2.8-5.5-2.7-8.5,0.3C31,11.3,24.3,17.9,17.8,24.5c-1,1-2.1,1.8-2.4,3.3
		c-0.3,1.9-0.4,3.8-0.3,5.7c0,0.6,0.1,1.3,0.9,1.6c1.9,0.8,7.3-0.4,8.9-2c6.2-6.1,12.4-12.2,18.5-18.4c0.7-0.8,1.4-1.6,2.1-2.3
		C48.4,9.6,48.6,6.9,46.1,4.5z M43.5,10c-7,7-14,13.9-21,20.9c-0.7,0.7-3.2,1.5-3.2,1.5s-1.6,0.5-1.7-0.5c-0.1-1.3,0.4-3.1,1.6-4.3
		c4.7-4.6,9.3-9.3,14-13.9c2.3-2.3,4.7-4.6,7-7c1.2-1.3,2.4-1.3,3.7-0.1C45.3,7.9,44.5,9,43.5,10z"/>
</g>
</svg>
