<?xml version="1.0" encoding="utf-8"?>
<!-- Generator: Adobe Illustrator 16.0.4, SVG Export Plug-In . SVG Version: 6.00 Build 0)  -->
<!DOCTYPE svg PUBLIC "-//W3C//DTD SVG 1.1//EN" "http://www.w3.org/Graphics/SVG/1.1/DTD/svg11.dtd">
<svg version="1.1" id="Calque_1" xmlns="http://www.w3.org/2000/svg" xmlns:xlink="http://www.w3.org/1999/xlink" x="0px" y="0px"
	 width="50px" height="50px" viewBox="0 0 50 50" enable-background="new 0 0 50 50" xml:space="preserve">
<path d="M46.4,34.8c-0.601-1.5-1.5-2.8-2.2-4.2c-1.601-3-3.2-5.899-4.8-8.8c-1.4-2.5-2.7-5-4.101-7.6c-0.2-0.4-0.2-0.4,0.2-0.6
	c1.1-0.4,2.1-1,2.8-1.9c2.2-2.5,2.101-6.2-0.2-8.6c-1-1.1-2.3-1.7-3.8-1.8c0.2,0.2,0.5,0.1,0.7,0.2c4.2,1,6.1,6,3.6,9.6
	c-0.899,1.4-2.199,2.2-3.8,2.6c0.101,0.2,0.2,0.3,0.3,0.5C38.7,20.8,42.2,27.4,45.8,34c0.9,1.8,1.2,3.6,0.601,5.5
	C45.6,42.1,43.8,43.6,41.1,44.2c-0.3,0.1-0.399,0.2-0.399,0.5v3c0,0.5-0.101,0.899-0.601,1.1c0.601-0.2,0.7-0.3,0.7-0.899v-3
	c0-0.4,0.101-0.5,0.5-0.601c1.4-0.3,2.601-1,3.7-2C46.9,40.3,47.4,37.2,46.4,34.8L46.4,34.8z M37.2,46.6
	C37,46.4,36.9,46.4,36.6,46.6C35.8,47.3,34.9,48,34.1,48.7c0.301-0.101,0.5-0.3,0.801-0.5c0.6-0.5,1.199-1,1.8-1.601
	C36.8,46.6,36.9,46.5,37.2,46.6c0.399,0.5,0.899,0.9,1.3,1.301c0.4,0.3,0.7,0.699,1.2,0.8C38.9,48,38,47.3,37.2,46.6z M33,47.6V44.7
	c0-0.4-0.1-0.5-0.5-0.5H11c-4.8-0.3-7.5-5.5-4.9-9.601c1.2-1.899,3-2.8,5.3-2.899h2.9c-0.1-0.2-0.2-0.4-0.3-0.5
	C10.8,25,7.5,18.9,4.3,12.7c-0.5-1-0.9-2-1-3.1C3,5.6,5.6,2.2,9.5,1.4c0.1,0,0.3,0,0.4-0.2C8.6,1.4,7.4,1.9,6.4,2.6
	C4.3,4.2,3.2,6.3,3.1,8.9c0,1.6,0.5,3,1.2,4.3c1.2,2.1,2.3,4.3,3.4,6.5c0.7,1.3,1.4,2.7,2.1,4c1.3,2.5,2.6,5,4,7.5
	C14,31.6,13.9,31.6,13.5,31.6h-1.9c-1.1,0-2.2,0.2-3.2,0.801c-3.1,1.6-4.6,6-2.1,9.399c1.3,1.8,3.1,2.601,5.3,2.601h20.5
	c0.801,0,0.801,0,0.801,0.8V47.6c0,0.5,0.1,1,0.8,1.2C33.1,48.5,33,48.1,33,47.6z"/>
<path d="M45.8,34c-3.6-6.6-7.1-13.2-10.7-19.8C35,14,34.9,13.9,34.8,13.7c1.601-0.4,2.9-1.3,3.8-2.6C41.1,7.5,39.2,2.6,35,1.5
	c-0.2-0.1-0.5,0-0.7-0.2H9.8C9.7,1.5,9.5,1.4,9.4,1.5C5.5,2.3,2.9,5.7,3.3,9.7c0.1,1.1,0.5,2.1,1,3.1C7.5,19,10.8,25.1,14,31.3
	c0.1,0.101,0.1,0.3,0.3,0.5h-2.9c-2.3,0-4.1,1-5.3,2.9c-2.6,4,0.1,9.2,4.9,9.6h21.5c0.4,0,0.5,0.101,0.5,0.5v2.9
	c0,0.5,0.1,0.899,0.6,1.1h0.5c0.801-0.7,1.7-1.399,2.5-2.1c0.2-0.2,0.301-0.2,0.601,0c0.8,0.7,1.7,1.399,2.5,2.1h0.5
	c0.5-0.2,0.6-0.6,0.6-1.1v-3c0-0.3,0.101-0.4,0.4-0.5c2.7-0.5,4.399-2.101,5.3-4.7C47.1,37.5,46.8,35.7,45.8,34L45.8,34z M15.7,2.9
	h17.6c1.601,0,3,0.6,4,1.9c1.601,2.1,1,5.4-1.3,6.6c-0.8,0.4-1.6,0.7-2.5,0.7H15.2c2.8-2.9,2.4-6.8,0-9.2H15.7z M14.6,41.4
	c-1.5,1.199-3.2,1.5-5,0.8c-1.7-0.601-2.9-2.5-2.9-4.3C6.7,36,8,34.2,9.8,33.6c1-0.3,2-0.199,2.9-0.199h2c0.3,0,0.4,0.1,0.5,0.3
	c0.4,0.899,1,1.8,1.2,2.8C16.7,38.5,16.1,40.2,14.6,41.4z M39.1,46.1L37.6,44.9c-0.6-0.5-0.899-0.5-1.6,0
	c-0.5,0.399-0.9,0.8-1.4,1.199h-0.1v-6.8c1.5,0.7,3,0.7,4.5,0v6.8H39.1z M37,38.1c-1.8,0-3.4-1.399-3.4-3.3
	c0-1.8,1.4-3.3,3.301-3.399c1.8,0,3.3,1.5,3.3,3.3S38.7,38.1,37,38.1z M41.3,42.5c-0.399,0.1-0.5,0-0.5-0.4V38.4
	C40.8,38.1,40.9,37.8,41,37.6c1.3-1.899,1.1-4.199-0.5-6.1c-1.4-1.6-3.8-2-5.8-1.1C32,31.7,31.1,35.1,32.7,37.6
	c0.2,0.2,0.2,0.5,0.2,0.801v4c0,0.3-0.101,0.3-0.301,0.3H15.7c0.9-0.8,1.5-1.7,1.9-2.7c0.8-2,0.6-4-0.4-5.9
	c-3-5.6-5.9-11.2-8.9-16.8c-1-1.9-2.1-3.8-3-5.8C4.4,9.2,4.7,7.1,6.1,5.3C7.5,3.5,9.3,2.7,11.5,3c2,0.3,3.3,1.5,3.8,3.4
	c0.5,1.8-0.1,3.3-1.5,4.6c-0.8,0.7-1.7,1.1-2.8,1.1c-0.6,0-1,0.3-1,0.8s0.4,0.8,1.1,0.8h21.5c0.301,0,0.5,0.1,0.601,0.4
	C37,21,40.7,27.9,44.4,34.8C46.2,38,44.4,41.7,41.3,42.5z"/>
<path d="M32.4,17.3c0,0.6-0.4,0.8-1.2,0.8H12.6c-0.8,0-1.2-0.3-1.2-0.8s0.4-0.8,1.2-0.8h18.6C32.1,16.5,32.4,16.7,32.4,17.3z
	 M35.8,21.3c0,0.4-0.399,0.7-0.899,0.8h-19c-0.2,0-0.4,0-0.6-0.1c-0.4-0.1-0.6-0.4-0.5-0.8c0-0.4,0.2-0.6,0.6-0.7
	c0.2,0,0.4-0.1,0.6-0.1h19.1C35.5,20.5,35.8,20.8,35.8,21.3z"/>
</svg>
