<?xml version="1.0" encoding="utf-8"?>
<!-- Generator: Adobe Illustrator 16.0.4, SVG Export Plug-In . SVG Version: 6.00 Build 0)  -->
<!DOCTYPE svg PUBLIC "-//W3C//DTD SVG 1.1//EN" "http://www.w3.org/Graphics/SVG/1.1/DTD/svg11.dtd">
<svg version="1.1" id="Calque_1" xmlns="http://www.w3.org/2000/svg" xmlns:xlink="http://www.w3.org/1999/xlink" x="0px" y="0px"
	 width="300px" height="300px" viewBox="0 0 300 300" style="enable-background:new 0 0 300 300;" xml:space="preserve">
<path d="M64.9,131.9c0.1-10.1,0-20.1,0-30.2c0-1.1,0-1.9,1.5-1.9c14.2,0.4,28.4-0.7,42.6,0.7c2.3,0.2,4.5,0.8,6.8,1.4
	c1.7,0.4,3.1,1.4,4.5,2.4c6.6,4.8,6.7,21.8-2.2,26c-5,2.4-10.3,3.4-15.8,3.4c-5.4,0.1-10.9,0-16.3,0c-6.4,0-12.7,0-19,0
	C65.4,133.9,64.9,133.5,64.9,131.9z"/>
<path d="M128.1,178.5c0.2,11.8-5.5,19.3-15.9,21.3c-2.9,0.5-5.8,0.8-8.7,0.8c-12.1,0.1-24.2,0-36.3,0.1c-2,0-2.5-0.5-2.5-2.5
	c0.1-12.1,0.1-24.2,0-36.3c0-2,0.6-2.5,2.5-2.5c6.9,0.1,13.7,0,21.8,0c6.8,0.3,14.8-0.5,22.8,0.8C122.5,162.1,128,168.3,128.1,178.5
	z"/>
<path d="M251.9,156.8c-0.9-5.3-2.4-10.4-6.3-14.3c-8.1-8-17.9-9.2-28.2-6.2c-10,2.9-14,11-16.2,20.3c-0.5,2,0.3,2.4,2.1,2.3
	c7.8-0.1,15.5-0.1,23.3-0.1s15.5,0,23.3,0C251.3,158.9,252.2,158.8,251.9,156.8z M251.9,156.8c-0.9-5.3-2.4-10.4-6.3-14.3
	c-8.1-8-17.9-9.2-28.2-6.2c-10,2.9-14,11-16.2,20.3c-0.5,2,0.3,2.4,2.1,2.3c7.8-0.1,15.5-0.1,23.3-0.1s15.5,0,23.3,0
	C251.3,158.9,252.2,158.8,251.9,156.8z M150,0C67.2,0,0,67.2,0,150s67.2,150,150,150s150-67.2,150-150S232.8,0,150,0z M193.5,81.6
	c10.3,0.1,20.6,0,30.8,0c10.4,0,20.8,0.1,31.2-0.1c2.2,0,2.7,0.6,2.6,2.7c-0.2,3.6-0.1,7.3,0,10.9c0,1.6-0.3,2.3-2.1,2.3
	c-21.1-0.1-42.1-0.1-63.2,0c-1.8,0-2.2-0.6-2.1-2.2c0.1-3.6,0.2-7.3,0-10.9C190.5,81.8,191.5,81.6,193.5,81.6z M149.1,212.4
	c-7.3,8.2-16.7,12.3-27.4,14c-6.5,1-13,1.4-19.6,1.4c-21.7,0-43.4-0.1-65.1,0c-2.5,0-3.4-0.3-3.4-3.2c0.1-49.6,0.1-99.2,0-148.9
	c0-2.6,0.7-3.1,3.2-3.1c25,0.1,50,0.1,75,0.2c5.5,0,11,1,16.4,2.5c18.9,5.6,29.3,21.2,27.8,41.1c-1,12.7-6.6,22.2-18.5,27.9
	c2.8,1.5,5.4,2.7,7.8,4.2c8.8,5.7,13.6,14.1,15.1,24.4C162.6,187.7,159.1,201.1,149.1,212.4z M200,181.7
	c2.5,19.5,18.6,29.9,37.4,24.1c5.3-1.7,9.5-4.9,12.2-9.7c1-1.7,2.1-2.2,4.1-2.2c8.5,0.1,17,0.1,25.4,0c2.4,0,2.7,0.8,2.1,2.8
	c-3.6,12.4-11.7,21.3-22.6,27.5c-19.7,11.2-53.3,11.3-74.7-9.4c-7.2-7-11-15.8-12.8-25.5c-3-16.6-2.8-33,4.2-48.6
	c7.6-17.2,21.5-26.8,39.8-29.8c11.9-2,23.8-1.3,35.1,3.2c18.6,7.3,28.2,21.8,31.8,40.9c1.3,7,1.2,14,1.3,21.1c0,2.5-0.9,3-3.1,2.9
	c-12.9-0.1-25.8-0.1-38.7-0.1c-13,0-26,0.1-39-0.1C200.1,178.8,199.8,179.6,200,181.7z M203.2,158.9c7.8-0.1,15.5-0.1,23.3-0.1
	s15.5,0,23.3,0c1.5,0,2.5-0.1,2.2-2.1c-0.9-5.3-2.4-10.4-6.3-14.3c-8.1-8-17.9-9.2-28.2-6.2c-10,2.9-14,11-16.2,20.3
	C200.6,158.6,201.3,159,203.2,158.9z"/>
</svg>
