<?xml version="1.0" encoding="utf-8"?>
<!-- Generator: Adobe Illustrator 16.0.4, SVG Export Plug-In . SVG Version: 6.00 Build 0)  -->
<!DOCTYPE svg PUBLIC "-//W3C//DTD SVG 1.1//EN" "http://www.w3.org/Graphics/SVG/1.1/DTD/svg11.dtd">
<svg version="1.1" id="Calque_1" xmlns="http://www.w3.org/2000/svg" xmlns:xlink="http://www.w3.org/1999/xlink" x="0px" y="0px"
	 width="300px" height="300px" viewBox="0 0 300 300" style="enable-background:new 0 0 300 300;" xml:space="preserve">
<style type="text/css">
<![CDATA[
	.st0{fill-rule:evenodd;clip-rule:evenodd;}
]]>
</style>
<path class="st0" d="M153.2,1C68.9-0.7,1.5,66.5,0,148c-1.5,84,65.4,151.6,147.3,152.9c84.2,1.4,151.3-65.7,152.7-147.3
	C301.3,69.3,234.1,2.6,153.2,1z M123.8,171.8c-1.9,6-2.5,12.1-3,18.4c-0.2,3.6-0.6,3.7-4.2,3.7H88.4c-14-0.1-28.1,0.2-42.1,0.7
	c-1,0-2,0-3,0c-1.3,0-2.4-0.2-2.4-1.9c0-1.5,0.9-2.1,2.2-2.3c2.8-0.3,5.5-0.7,8.3-0.9c2.4-0.1,3.3-1.3,3.3-3.5
	c0-23.6,0-47.3-0.1-70.9c0-4.8-0.2-4.9-5.1-5.5c-1.7-0.2-3.4-0.3-5-0.4c-1.5-0.1-3-0.4-2.9-2.4c0.1-2,1.7-2,3.1-2
	c11.9,0.4,23.9,1.1,35.8,0.6c10.8-0.5,21.5,0.6,32.3,0.1c2.2-0.1,2.9,1.1,2.6,3c-0.8,5.2-0.6,10.4-0.2,15.6c0.1,0.8,0.2,1.8-0.9,2
	c-1.2,0.3-2-0.3-2.4-1.4c-1.3-3.3-2.4-6.6-4.2-9.7c-0.3-0.5-0.6-1-0.8-1.6c-1.2-2.9-3.3-3.9-6.3-3.8c-9.6,0.2-19.2,0.1-28.8,0.2
	c-4.1,0.1-4.1,0.3-4.6,4.3c-0.7,6.6,0.1,13.1,0,19.7c0,3.3,0.1,6.6,0,9.8c0,1.2,0.1,1.8,1.6,1.8c9.3-0.1,18.5,0,27.8-0.1
	c3.4,0,4.2-0.9,4.8-4.2c0.3-1.9,0.5-3.8,0.8-5.7c0.1-1,0.5-1.9,1.1-2.8c0.6-0.9,1.5-0.9,2.5-0.8c1.2,0.2,1.1,1.2,1.1,1.9
	c-0.1,3.4-0.2,6.7-0.3,10.1c-0.3,6.4-0.1,12.8,0.5,19.2c0.1,0.7,0,1.3-0.1,2c-0.1,0.9-0.7,1.3-1.5,1.4c-0.8,0.1-1.2-0.4-1.4-1.1
	c-0.5-1.7-1.1-3.3-1.6-5c-0.6-2-1.2-4-1.8-6c-0.9-2.7-2.9-4.2-5.7-4.2c-8.6,0-17.2,0.1-25.7,0.2c-1.4,0-2.2,0.4-2.2,2
	c0.2,11.2-0.5,22.4,0.3,33.6c0.2,3,0.9,3.7,3.9,3.7c9.9,0,19.8,0.7,29.8,0c6.7-0.4,11.7-3.2,14.7-9.3c1.2-2.5,2.4-5,3.6-7.5
	c0.5-1,0.9-2,1.8-2.7c0.8-0.6,1.7-0.5,2.6,0C124.3,170.5,124,171.1,123.8,171.8z M165.8,190.2c-4.7,4.8-15.4,7-21.4,4.1
	c-3.7-1.8-5.7-4.8-6-9c-0.4-6.1-0.3-12.3,0-18.4c0-5.9-0.1-11.8,0.1-17.7c0.1-2.4-0.8-2.9-2.9-2.6c-1.1,0.2-2.2,0.2-3.3,0.2
	c-1.1,0-2.1-0.2-2.3-1.4c-0.3-1.1,0.2-2,1.2-2.6c0.3-0.2,0.6-0.3,0.9-0.5c5.9-2.6,9.6-7.2,11.5-13.3c0.3-1,0.8-2,1.2-3.1
	c0.5-1.4,1.6-1.3,2.7-1.2c1.3,0.1,1.1,1.1,1.1,1.9c0,3.7,0.1,7.4,0,11.1c0,1.6,0.4,2.2,2.1,2.1c4.5-0.1,9.1-0.7,13.6-0.6
	c1.9,0,2.3,0.8,2.4,2.3c0.2,3.5-0.3,4.1-3.7,4.2c-4.1,0.1-8.2,0.3-12.4,0.3c-1.7,0-2.4,0.5-2.4,2.3c0,11.1,0,22.2,0.1,33.3
	c0,1.2,0.2,2.3,0.5,3.5c0.7,2.7,2.5,4.1,5.3,4.1c3.3,0,6.5-0.4,9.3-2.5c1-0.8,2.2-1.2,3.2-0.1C167.4,188.1,166.8,189.2,165.8,190.2z
	 M196.7,195.4c-2.3,0.6-4.6,1.2-5.9,1c-5.7-0.3-10.2-1.1-14.5-2.8c-1.4-0.6-2.2-1.5-2.3-3c-0.4-4-0.8-8-1.1-12
	c-0.1-1.3-0.3-2.8,1.6-3.2c1.9-0.5,2,1.2,2.4,2.3c1.5,3.9,3.1,7.6,6.2,10.5c4.3,4,10.1,5.1,14.3,2.6c5.3-3.2,6.4-8.5,3-13.6
	c-3-4.5-7.8-6.4-12.5-8.5c-3.2-1.4-6.3-2.7-9.1-4.9c-8.9-6.9-7.4-20.6,2.7-25.5c7.8-3.8,15.5-2.7,23.2,0.3c1.1,0.4,1.6,1.3,1.6,2.5
	c0.1,2.9,0.4,5.9,0.5,8.8c0,1,1.1,2.4-0.7,3c-1.9,0.6-2.8-0.5-3.5-2.2c-1.6-4.1-4.5-7.2-8.6-9.2c-3.6-1.8-7.5-1.2-10,1.5
	c-2.4,2.6-3,6.7-1.3,9.8c1,1.8,2.6,3,4.4,4c4.4,2.5,9.2,4.1,13.5,6.7c5,3,7.9,7.4,9,13C211.2,184.7,205.5,193.3,196.7,195.4z
	 M271.8,142.6c-1.2,0.2-2.5,0.5-3.7,0.8c-1.9,0.5-3.2,1.7-3.9,3.6c-6.6,18.3-13.2,36.6-19.9,54.9c-2.4,6.7-4.5,13.5-8,19.8
	c-2.8,5-7.4,7.8-12,7.1c-3.4-0.5-5.3-3-4.7-6.4c0.5-3.1,3.1-4.8,6.3-4.2c6.5,1.1,6.5,1.1,9.6-4.8c0.8-1.6,1.5-3.2,2.3-4.7
	c3.9-7.1,2.9-14,0-21.3c-5.2-13.2-9.8-26.6-14.2-40.1c-1.1-3.4-3.7-4-6.4-4.9c-0.8-0.3-1.7-0.4-2-1.3c-0.5-1.3-0.3-2.4,1.4-2.5
	c8.2-0.3,16.3-0.2,24.4,0.2c1,0.1,2,0.3,2.1,1.7c0.1,1.3-0.8,1.7-1.9,1.8c-2.1,0.3-4.2,0.5-6.2,1c-1.1,0.2-2.5,0.4-1.9,2.4
	c4.1,12.7,7.9,25.5,12.5,38c0.1,0.2,0.2,0.4,0.6,1.2c2.3-4.7,3.9-9.3,5.4-13.9c2.4-7.2,5.4-14.1,6.7-21.6c0.8-4.5,0.5-5.1-4-6.3
	c-1.3-0.4-2.6-0.8-3.8-1.2c-1-0.3-1.6-1-1.5-2.1c0.1-1,1.1-1.3,1.9-1.3c6.9,0,13.8,0.1,20.7,0.2c1.2,0,2,0.6,2,1.8
	C273.7,141.8,273,142.5,271.8,142.6z"/>
</svg>
