<?xml version="1.0" encoding="utf-8"?>
<!-- Generator: Adobe Illustrator 16.0.4, SVG Export Plug-In . SVG Version: 6.00 Build 0)  -->
<!DOCTYPE svg PUBLIC "-//W3C//DTD SVG 1.1//EN" "http://www.w3.org/Graphics/SVG/1.1/DTD/svg11.dtd">
<svg version="1.1" id="Calque_1" xmlns="http://www.w3.org/2000/svg" xmlns:xlink="http://www.w3.org/1999/xlink" x="0px" y="0px"
	 width="300px" height="300px" viewBox="0 0 300 300" style="enable-background:new 0 0 300 300;" xml:space="preserve">
<path d="M145.3,0c0.2,0,0.4,0,0.6,0c2.8,0.3,5.6,0.1,8.3,0.1c0.6,0,1.2,0,1.8,0c0.7-0.1,1.5,0.2,2.2-0.1c0.2,0,0.4,0,0.6,0
	c2.3,0.4,4.6,0.4,6.9,0.4c5.8,0.1,11.5,1.2,17.2,2.5c13.2,2.9,25.7,7.6,37.7,13.9c8.9,4.7,17.1,10.3,24.9,16.6
	c3.7,3,7.2,6.2,10.5,9.5c7.5,7.5,14.2,15.6,20,24.4c10.5,16,17.7,33.4,21.6,52.2c1.3,6,2,12,2.1,18.1c0,1.4-0.1,2.8,0.3,4.2
	c0,0.1,0,0.2,0,0.3c-0.3,0.6-0.1,1.2-0.1,1.9c0,0.6,0,1.1,0,1.7c0.1,1.1-0.2,2.1,0.1,3.2c0,1.4,0,2.7,0,4.1c-0.3,0.5-0.1,1-0.1,1.5
	c0.1,0.7-0.1,1.3,0.1,2c0,0.9,0,1.8,0,2.6c-0.4,3-0.4,6-0.6,9c-0.3,5.4-1.4,10.7-2.6,16c-2.8,12.5-7.3,24.4-13.2,35.7
	c-5.2,9.9-11.4,19.2-18.8,27.7c-9.5,11.1-20.3,20.8-32.6,28.8c-9,5.9-18.6,10.8-28.7,14.6c-2.1,0.8-2.6,0.4-2.7-1.9
	c0-0.7,0-1.4,0-2.1c0-30.9,0-61.8,0-92.7c0-0.9,0-1.8,0-2.6c0.1-1.4,0.4-1.7,1.9-1.9c0.8-0.1,1.6,0,2.3,0c7.8,0,15.5,0,23.3,0
	c2.5,0,2.6-0.2,2.9-2.6c0.9-7,1.5-14.1,2.3-21.1c0.4-3.2,0.6-6.5,1.1-9.7c0.1-0.4,0.1-0.9,0.1-1.3c0-1-0.5-1.5-1.5-1.6
	c-0.5,0-1.1,0-1.6,0c-9.2,0-18.4,0-27.5,0c-3.2,0-3.3-0.2-3.3-3.3c0-5.5-0.1-11,0-16.6c0-2.3,0.1-4.7,0.6-7c0.8-4.1,3.3-6.6,7.3-7.7
	c2.4-0.6,4.8-0.8,7.3-0.9c5.4-0.1,10.7,0,16.1,0c2.4,0,2.7-0.3,2.7-2.7c0-10.3,0-20.6,0-30.9c0-2.4-0.3-2.7-2.7-2.7
	c-10.2,0-20.4-0.2-30.6,0c-8.2,0.2-16.3,1.6-23.7,5.2c-8.3,4.1-14.1,10.7-17.2,19.5c-2.3,6.4-3.2,13-3.5,19.8
	c-0.4,8.2-0.1,16.3-0.3,24.4c0,2.5-0.3,2.7-2.8,2.8c-5.7,0-11.3,0-17,0c-2.4,0-2.7,0.3-2.7,2.7c0,10.4,0,20.7,0,31.1
	c0,2.3,0.4,2.6,2.7,2.6c5.4,0,10.7,0,16.1,0c0.7,0,1.4,0,2,0.1c1,0.1,1.6,0.6,1.7,1.6c0,0.7,0.1,1.4,0.1,2c0,34.4,0,68.8,0,103.3
	c0,1,0.3,2.1-0.5,3c-0.5,0.3-1,0.1-1.5,0.2c-0.5,0.1-1.1-0.2-1.7,0.1c-2,0-3.9,0-5.9,0c-0.7-0.2-1.4-0.2-2.1,0c-0.2,0-0.4,0-0.6,0
	c-0.6-0.2-1.2-0.2-1.8,0c-0.6,0-1.2,0-1.8,0c-2.2-0.4-4.4-0.3-6.7-0.4c-7.1-0.2-14.1-1.7-21-3.4c-11.7-2.8-22.8-7.1-33.5-12.7
	c-10.3-5.3-19.8-11.8-28.5-19.4c-13.7-12-25.2-25.9-33.9-42c-7.1-13.1-12.2-27-15.3-41.6c-1.2-5.9-2-11.8-2.1-17.9
	c0-1.4,0.1-2.8-0.3-4.2c0-0.3,0-0.6,0-0.9c0.3-0.7,0.1-1.4,0.1-2.1c0-0.5,0-1,0-1.4c-0.1-0.9,0.2-1.8-0.1-2.6c0-1,0-2,0-2.9
	c0.3-0.9,0.1-1.8,0.1-2.6c0-0.6,0-1.1,0-1.7c-0.1-0.7,0.2-1.4-0.1-2.1c0-0.3,0-0.6,0-0.9c0.3-2.3,0.3-4.5,0.4-6.8
	c0.2-6.1,1.3-12.1,2.7-18.1C6,103.3,10.7,90.8,17,79c5-9.4,11-18.1,17.8-26.2c2.9-3.4,5.9-6.7,9-9.8c9.8-9.7,20.7-17.9,32.7-24.7
	C88.2,11.8,100.4,7,113.3,3.7c8-2,16-3.5,24.3-3.5c1.2,0,2.4,0,3.6-0.3c0.2,0,0.4,0,0.6,0c0.6,0.3,1.2,0.1,1.8,0.1
	C144.1,0.1,144.7,0.3,145.3,0z"/>
</svg>
