<?xml version="1.0" encoding="utf-8"?>
<!-- Generator: Adobe Illustrator 16.0.4, SVG Export Plug-In . SVG Version: 6.00 Build 0)  -->
<!DOCTYPE svg PUBLIC "-//W3C//DTD SVG 1.1//EN" "http://www.w3.org/Graphics/SVG/1.1/DTD/svg11.dtd">
<svg version="1.1" id="Calque_1" xmlns="http://www.w3.org/2000/svg" xmlns:xlink="http://www.w3.org/1999/xlink" x="0px" y="0px"
	 width="300px" height="300px" viewBox="0 0 300 300" style="enable-background:new 0 0 300 300;" xml:space="preserve">
<style type="text/css">
<![CDATA[
	.st0{fill-rule:evenodd;clip-rule:evenodd;}
]]>
</style>
<g>
	<path class="st0" d="M166.7,157.5c-0.2,0.1-0.4,0.2-0.8,0.2c-0.3-0.5-0.2-0.9,0.3-1.1c0.1,0.1,0.1,0.1,0.2,0.2
		c0.1,0.1,0.1,0.1,0.2,0.2c0,0,0,0,0,0C166.9,157.2,166.9,157.3,166.7,157.5z"/>
	<path class="st0" d="M166.7,157.5c-0.2,0.1-0.4,0.2-0.8,0.2c-0.3-0.5-0.2-0.9,0.3-1.1c0.1,0.1,0.1,0.1,0.2,0.2
		c0.1,0.1,0.1,0.1,0.2,0.2c0,0,0,0,0,0C166.9,157.2,166.9,157.3,166.7,157.5z"/>
	<path class="st0" d="M166.7,157.5c-0.2,0.1-0.4,0.2-0.8,0.2c-0.3-0.5-0.2-0.9,0.3-1.1c0.1,0.1,0.1,0.1,0.2,0.2
		c0.1,0.1,0.1,0.1,0.2,0.2c0,0,0,0,0,0C166.9,157.2,166.9,157.3,166.7,157.5z"/>
	<path class="st0" d="M297.8,123.6c-13-78.9-89.1-134-168.7-122C31.9,16.3-26.2,116.1,11.7,206.2c22.5,53.4,63.6,84.7,121.9,92.1
		c3,0.1,6.1,0.2,9.1,0.4c9.3,2.8,18.9,0.9,28-0.5C256.1,285.6,311.9,208.7,297.8,123.6z M112,215.6c0,4.1-1.7,5.2-5.4,5.1
		c-9.6-0.3-19.3-0.4-29-0.6c-3.2-1.6-2.4-4.6-2.4-7.2c-0.1-29.1-0.1-58.2,0-87.3c0-1.2-0.2-2.6,0-3.8c0-0.1,0-0.3,0.1-0.4
		c0-0.2,0.1-0.4,0.2-0.6c0.1-0.2,0.1-0.3,0.2-0.5c0.1-0.2,0.2-0.3,0.3-0.5c0,0,0,0,0,0c0.1-0.1,0.2-0.3,0.4-0.4
		c0.1-0.1,0.3-0.3,0.5-0.4c0-0.1,0.1-0.1,0.1-0.1c0.1-0.1,0.2-0.1,0.3-0.2c0.1-0.1,0.3-0.2,0.5-0.2c9.7-0.1,19.3-0.1,29-0.3
		c3.9-0.1,5.3,1.2,5.3,5.2C111.9,154.1,111.9,184.9,112,215.6z M94.4,104.1c-10.8-0.2-19-8-18.8-18c0.2-10.4,8.7-17.5,20.4-17.2
		c11.2,0.3,18.3,7.6,17.9,18.3C113.6,97.5,105.8,104.3,94.4,104.1z M236.4,211.5c0,2.9,1.1,6-1.2,8.6c-9.3,0.2-18.7,0.1-28,0.6
		c-5.5,0.3-6.5-2-6.4-6.8c0.3-16,0.4-32,0-47.9c-0.2-8.6-0.5-17.9-10.8-21.8c-4.2-1.9-8.4-1.9-12.6,0c-6.2,1.9-9.9,6-11,12.3
		c0.1,0.1,0.1,0.1,0.2,0.2c0.1,0.1,0.1,0.1,0.2,0.2c0,0,0,0,0,0c0.2,0.2,0.2,0.4,0,0.5c-0.2,0.1-0.4,0.2-0.8,0.2
		c-2.6,17.1-1.2,34.3-0.9,51.5c0.1,9.4-2.2,12.1-11.8,11.8c-22.8-0.7-22.7-0.2-22.6-22.6c0.1-24.5,0.3-49,0-73.5
		c-0.1-5.1,1-7.1,6.3-6.7c5.1,0.4,10.4,0.5,15.4,0c8.7-0.9,15.2,0,12.7,12.6c7.6-10.2,17.8-13.9,29-15.7c0.9,0,1.8,0,2.6,0
		c23.4,2.3,34.7,16.6,38.4,38.5c2.6,4.2,1.1,8.7,1.1,13.1C236.6,181.5,236.5,196.5,236.4,211.5z"/>
</g>
</svg>
